<svg xmlns="http://www.w3.org/2000/svg" viewBox="0 0 619.6 144.57"><defs><style>.cls-1{fill:#231815;}</style></defs><g id="圖層_1" data-name="圖層 1"><path class="cls-1" d="M375.42,148.91c-.35-2-.58-4.07-.87-6.08l-.82-6c-.57-4-1.22-7.87-2-11.71a78.16,78.16,0,0,0-7.42-21.55,49.69,49.69,0,0,0-6.25-9.22A103.22,103.22,0,0,0,350,86a54.85,54.85,0,0,1-8.21-9.55,30.14,30.14,0,0,1-1.57-2.84c-.42-.94-.81-1.77-1.28-2.6a7.74,7.74,0,0,0-1.71-2.16,3.4,3.4,0,0,0-2.63-.84,3.78,3.78,0,0,1,3.2-.22,9.07,9.07,0,0,1,2.84,1.79,24.17,24.17,0,0,1,2.22,2.34c.63.71,1.29,1.4,2,2.06A88.76,88.76,0,0,0,354,81.19c1.63,1.18,3.29,2.39,4.92,3.72a45,45,0,0,1,4.75,4.35,51.62,51.62,0,0,1,4.22,5,56.7,56.7,0,0,1,3.44,5.54,58.59,58.59,0,0,1,6.6,24.54A79.81,79.81,0,0,1,375.42,148.91Z"/><path class="cls-1" d="M587.15,145.69a11.31,11.31,0,0,1-2.77-4,31.92,31.92,0,0,1-1.54-4.57c-.84-3-1.55-6-2.19-9-.31-1.51-.62-3-.89-4.53a34.44,34.44,0,0,1-.63-5,15.11,15.11,0,0,1,.92-5.93,22.19,22.19,0,0,1,2.7-4.85c1-1.36,1.93-2.53,2.92-3.77s2-2.4,3.06-3.56c2.1-2.32,4.3-4.55,6.62-6.65A71.18,71.18,0,0,1,610.7,83c-3.41,5.35-7.1,10.2-10.7,15.08l-10.75,14.39a16,16,0,0,0-1.87,3.1,8.32,8.32,0,0,0-.68,3.06c-.09,1.22,0,2.63,0,4.18s.11,3.07.13,4.61c0,3.07,0,6.16-.15,9.26S586.24,142.62,587.15,145.69Z"/><path class="cls-1" d="M595.83,150.35a.77.77,0,0,0,.84-.55.43.43,0,0,0,0-.37c-.08,0-.11-.18-.18-.28A3.83,3.83,0,0,1,596,148a4.62,4.62,0,0,1,0-2,10.27,10.27,0,0,1,1.29-3c.46-.79.9-1.49,1.37-2.22a47.62,47.62,0,0,1,6.53-7.82,46.65,46.65,0,0,1,8-6.26,31.84,31.84,0,0,1,9.7-4.12,42.23,42.23,0,0,1-5.53,8.82,72.33,72.33,0,0,1-6.64,7.31,73.62,73.62,0,0,1-7.54,6.38c-.66.49-1.38,1-2,1.43s-1.19.75-1.57,1a2,2,0,0,0-.51.46,12,12,0,0,0-.43,1.34,2.81,2.81,0,0,1-.51.91,1.75,1.75,0,0,1-.85.53C596.76,151,596,150.84,595.83,150.35Z"/><path class="cls-1" d="M374.55,58.58a76.3,76.3,0,0,1,10.33,20.31,95,95,0,0,1,4.66,22.42,136.08,136.08,0,0,1,0,22.66,172.49,172.49,0,0,1-3.14,22.34A153.69,153.69,0,0,1,383.26,124c-.61-7.41-1-14.73-1.68-22s-1.53-14.38-2.77-21.58S376,66.06,374.55,58.58Z"/><path class="cls-1" d="M331.88,90.13c2,2.42,4,4.71,6,7s4.08,4.47,6.09,6.77,4,4.68,5.87,7.23l1.38,1.93c.45.66.87,1.34,1.3,2,.85,1.34,1.68,2.7,2.41,4.11a85.57,85.57,0,0,1,7,17.47,111.47,111.47,0,0,1,3.47,18.25l-.93-.77a1.33,1.33,0,0,0,1.46-.23,1.63,1.63,0,0,0,.59-.79,1.41,1.41,0,0,0-.1-1.09,1.57,1.57,0,0,1,.72,1.12,2.62,2.62,0,0,1-.23,1.45,3,3,0,0,1-1,1.21,3,3,0,0,1-1.69.52h-.51l-.41-.78c-2.92-5.49-5.38-11.08-7.83-16.56s-4.85-10.89-7.54-16.09c-1.36-2.6-2.73-5.16-4.23-7.7l-4.61-7.78C336.06,102.09,333,96.36,331.88,90.13Z"/><path class="cls-1" d="M274.58,110.9c1.69,1.15,3.21,2.21,4.75,3.33a40.79,40.79,0,0,1,4.39,3.76,43.4,43.4,0,0,1,7,9.25,42.6,42.6,0,0,1,4.24,10.8,30,30,0,0,1,.58,11.74,86.11,86.11,0,0,1-6.41-9.38c-1.89-3.09-3.67-6.15-5.39-9.25s-3.42-6.21-5.06-9.45c-.81-1.63-1.62-3.26-2.41-5A20,20,0,0,1,274.58,110.9Z"/><path class="cls-1" d="M306,113a54.67,54.67,0,0,1-4,11,95.28,95.28,0,0,1-5.46,9.86,98.27,98.27,0,0,1-6.53,9.15,64,64,0,0,1-8,8.33l-.56-1.14c.6.31,1.2.64,1.79,1-.67.2-1.33.36-2,.5l-.81.18.25-1.32a50.21,50.21,0,0,1,3.62-11.07,69.82,69.82,0,0,1,5.55-10,68.58,68.58,0,0,1,7.09-9A44.92,44.92,0,0,1,306,113Z"/><path class="cls-1" d="M231,102.62a38.55,38.55,0,0,1,5,3.72,57.88,57.88,0,0,1,4.35,4.22,71.56,71.56,0,0,1,7.43,9.44l1.62,2.52,1.53,2.62a19.69,19.69,0,0,1,1.5,3.36,14.35,14.35,0,0,1,.57,3.92,37.84,37.84,0,0,1-.75,6.12,9.66,9.66,0,0,0,.06,4.61l-2.4-.42a15.77,15.77,0,0,0,4.87-2.69,10.44,10.44,0,0,1-2.9,5.6l-.93,1-1.47-1.37a9.12,9.12,0,0,1-2.13-3.13,14.24,14.24,0,0,1-.92-3.46c-.34-2.23-.36-4.18-.66-5.69a7.14,7.14,0,0,0-.57-1.87,14.42,14.42,0,0,0-1.1-1.94l-1.52-2.44-1.5-2.5c-2-3.34-3.84-6.76-5.55-10.32A72.19,72.19,0,0,1,231,102.62Z"/><path class="cls-1" d="M252.7,113a19.15,19.15,0,0,1,6.41,6.2,25.65,25.65,0,0,1,3.48,8,25.17,25.17,0,0,1,.69,8.65,18.51,18.51,0,0,1-2.81,8.49,46.37,46.37,0,0,1-3.44-7.8c-.88-2.5-1.58-4.93-2.2-7.4s-1.13-5-1.54-7.57A44.42,44.42,0,0,1,252.7,113Z"/><path class="cls-1" d="M273.48,123a15.12,15.12,0,0,1,3.39,5.72,18.92,18.92,0,0,1,1,5.9,18.53,18.53,0,0,1-.87,5.91,15.12,15.12,0,0,1-3.29,5.79,16.8,16.8,0,0,1-3-5.87,21.27,21.27,0,0,1-.09-11.52A17,17,0,0,1,273.48,123Z"/><path class="cls-1" d="M212.33,122.3a7.77,7.77,0,0,0-3.23,2.55A36.18,36.18,0,0,0,207,128c-1.54,2.3-3.18,4.49-4.89,6.57a81.29,81.29,0,0,1-5.46,6.09,46.55,46.55,0,0,1-6.79,5.81,20.47,20.47,0,0,1,1.48-9.18,28.26,28.26,0,0,1,4.59-7.79,29.15,29.15,0,0,1,6.73-6,14,14,0,0,1,4.66-2.05A6,6,0,0,1,212.33,122.3Z"/><path class="cls-1" d="M154.69,146.4a65,65,0,0,1-.38-10.19c.1-3.23.25-6.35.51-9.47s.56-6.24,1-9.43c.11-.8.22-1.6.35-2.41s.28-1.51.36-2.23a5.22,5.22,0,0,0-.89-4.31,4,4,0,0,1,2.8,1,7.54,7.54,0,0,1,1.92,2.45,16.52,16.52,0,0,1,1,2.67c.26.84.51,1.68.69,2.54a33.94,33.94,0,0,1,.71,10.39,34.74,34.74,0,0,1-2.35,10.14A25.46,25.46,0,0,1,154.69,146.4Z"/><path class="cls-1" d="M181.71,105.27a12,12,0,0,0-1.41,5.59c-.08,1.86,0,3.8-.16,6a18.36,18.36,0,0,1-.57,3.42,24.14,24.14,0,0,1-1.1,3.27,47.51,47.51,0,0,1-2.91,5.66c-1,1.73-2,3.31-3,5s-1.91,3.3-2.88,5c-1.94,3.38-3.76,6.87-6.07,10.58a28.51,28.51,0,0,1,.19-12.8,36.75,36.75,0,0,1,2-6.13c.41-1,.89-2,1.36-2.92s1-1.86,1.52-2.74c1.05-1.74,2.08-3.36,3-4.92.47-.77.88-1.55,1.28-2.31a24.82,24.82,0,0,0,1.07-2.41,42.79,42.79,0,0,1,2.56-5.83A8.92,8.92,0,0,1,181.71,105.27Z"/><path class="cls-1" d="M187.25,116.83a14,14,0,0,1,1.66,10.42,37.35,37.35,0,0,1-3.69,9.15c-1.34,2.63-2.73,5.23-4.23,7.89a73.63,73.63,0,0,1-5.23,8.22,22,22,0,0,1-.74-10.19,30.47,30.47,0,0,1,3.09-9.58,82.93,82.93,0,0,1,4.94-7.72A47.47,47.47,0,0,0,187.25,116.83Z"/><path class="cls-1" d="M109.53,108.84a21.74,21.74,0,0,1,10.25,4.86,28,28,0,0,1,7.14,9,26.89,26.89,0,0,1,2.91,11.17,19.47,19.47,0,0,1-2.73,11.08c-1.24-3.69-2.25-6.87-3.45-9.92s-2.46-5.91-3.87-8.73-3-5.59-4.69-8.41S111.49,112.2,109.53,108.84Z"/><path class="cls-1" d="M138.69,99c1.51,1.86,3.15,3.25,4.68,5.2a21,21,0,0,1,3.38,6.71,36.43,36.43,0,0,1,1.36,7.09c.24,2.32.36,4.53.44,6.81a62.75,62.75,0,0,1-1,13.81,32.64,32.64,0,0,1-5.41,13.05c-.36-4.79-.56-9.12-.86-13.5s-.58-8.71-.69-13.16l0-3.34c0-1.13,0-2.24,0-3.33,0-2.18.1-4.27,0-6.32a30.86,30.86,0,0,0-.72-6.09C139.41,103.89,138.55,101.48,138.69,99Z"/><path class="cls-1" d="M80.76,110.67a25,25,0,0,1,3.1,9.52,34.69,34.69,0,0,1-.15,9.76,34.24,34.24,0,0,1-1.08,4.77,43.12,43.12,0,0,1-1.63,4.4c-.59,1.37-1.16,2.67-1.67,4a18.45,18.45,0,0,0-1.1,4.57,8.78,8.78,0,0,1-2.83-4.57,18.44,18.44,0,0,1-.57-5.26c0-1.69.22-3.26.37-4.73s.38-3,.61-4.44c.46-2.94,1-5.87,1.79-8.85A48.93,48.93,0,0,1,80.76,110.67Z"/><path class="cls-1" d="M100.46,125.75a14.25,14.25,0,0,1,3.13,5.31,16.41,16.41,0,0,1,.87,5.31,16.14,16.14,0,0,1-.86,5.32,14,14,0,0,1-3.14,5.31,14.18,14.18,0,0,1-3.15-5.31,16.4,16.4,0,0,1-.85-5.32,16.67,16.67,0,0,1,.86-5.31A14.28,14.28,0,0,1,100.46,125.75Z"/><path class="cls-1" d="M67.84,96.65a20.1,20.1,0,0,1-.64,7.6,56.2,56.2,0,0,1-2.42,7c-.91,2.23-1.78,4.31-2.59,6.44s-1.62,4.24-2.32,6.4c-1.47,4.28-2.75,8.61-3.91,13.08-.58,2.23-1.12,4.5-1.68,6.81l-.81,3.52-.22.9a1.25,1.25,0,0,0-.1.63c.05.45.18,1.11.86,1a.76.76,0,0,1-.42.31,1.19,1.19,0,0,1-.59,0,2.34,2.34,0,0,1-.93-.68,2.75,2.75,0,0,1-.56-1.09l-.27-.9c-.38-1.21-.63-2.43-.89-3.67a43,43,0,0,1-.63-7.52,47.22,47.22,0,0,1,2.58-14.89,49.13,49.13,0,0,1,7-13.3C62.21,104.27,65.2,101,67.84,96.65Z"/><path class="cls-1" d="M108.34,126.44a12.26,12.26,0,0,1,3.13,4.62,12.82,12.82,0,0,1,0,9.26,12.07,12.07,0,0,1-3.14,4.62,12.1,12.1,0,0,1-3.15-4.62,12.66,12.66,0,0,1-.85-4.63,12.85,12.85,0,0,1,.86-4.63A12.18,12.18,0,0,1,108.34,126.44Z"/><path class="cls-1" d="M37.17,122.33a25.77,25.77,0,0,1,2.33,7.06c.43,2.18.72,4.19,1,6.09s.54,3.71.85,5.67.76,4,1.45,6.78A10.08,10.08,0,0,1,35.73,144a14.75,14.75,0,0,1-3.17-7.42,17.29,17.29,0,0,1,.69-7.64A16.75,16.75,0,0,1,37.17,122.33Z"/><path class="cls-1" d="M20.71,101.86A56.55,56.55,0,0,1,21.78,113c0,3.59-.12,7.11-.42,10.63s-.77,7-1.43,10.54a56.46,56.46,0,0,1-3,10.77A33.69,33.69,0,0,1,13.64,134a50.22,50.22,0,0,1,1.95-22A33.8,33.8,0,0,1,20.71,101.86Z"/><path class="cls-1" d="M.45,125.75a14.45,14.45,0,0,1,1.67,2.7,20.51,20.51,0,0,1,1.1,2.66,23.83,23.83,0,0,1,1.09,5.29,25.19,25.19,0,0,1-.08,5.28A22.61,22.61,0,0,1,2.91,147L.24,144.91a17.75,17.75,0,0,1,2,.58,12.82,12.82,0,0,1,2.1.94,13.14,13.14,0,0,1-1.62,1.63,17.64,17.64,0,0,1-1.68,1.27l-1.25.84-1.41-3a20.35,20.35,0,0,1-1.69-5.33,23.36,23.36,0,0,1-.26-5.41,21.4,21.4,0,0,1,1.08-5.39,17.66,17.66,0,0,1,1.14-2.68A13.91,13.91,0,0,1,.45,125.75Z"/></g><g id="圖層_2" data-name="圖層 2"><path class="cls-1" d="M389.77,55.3l25.24,2h29.16s12.74-.25,18.38,1.47,23,19.11,23,19.11,4.65-3.18,7.84-1.71a23.46,23.46,0,0,0,4.41,1.71A77,77,0,0,1,529.94,69c18.14-.73,26.72,8.58,32.6,8.82a26,26,0,0,0,10.06-1.47l-3,2.85L552,77.6,531.9,73s-8.57-.92-13.23,0S503,79.22,503,79.22a6.94,6.94,0,0,1,3.92,4.26l1,3.19,3,3,.33,3.1-5.07-2.94-2.94-.49s-6.29,4.17-9.23,5.07-11.44,1.87-16.66.49-5.56-.66-8.5-1.88-5-.82-7.92-1.8a8.77,8.77,0,0,0-5.56.08l-5-3,14.29-.49,6.62-4.25-7.92-4.34-18.95-18L404,58Z"/><path class="cls-1" d="M389.77,55.92l20,1.56c1.81.14,3.64.36,5.45.4,2.76.06,5.52,0,8.28,0,6.86,0,13.73,0,20.59,0,3.36,0,6.72,0,10.08.25a38.57,38.57,0,0,1,7.87,1.1,14.42,14.42,0,0,1,4.18,2.28c6.7,4.71,12.69,10.61,18.5,16.37l.41.4a.62.62,0,0,0,.76.1,13.2,13.2,0,0,1,2.72-1.4,9,9,0,0,1,2.4-.59,6.47,6.47,0,0,1,3.29.81c1.1.48,2.89,1.64,4.1,1a86,86,0,0,1,13.92-5.6c8.53-2.52,17.81-3.91,26.66-2.5,6.36,1,12,3.66,17.69,6.41A15.5,15.5,0,0,0,563,78.48a25.14,25.14,0,0,0,9.76-1.5l-.61-1-2.53,2.44s-.4.33-.39.38.41,0,.33-.16-.62-.06-.7-.06l-7.43-.69-8-.73-1-.1c-.08,0-.65-.08-.27,0-.44-.08-.89-.2-1.33-.3L535,73.08a46.52,46.52,0,0,0-14-1c-3.88.3-7.48,1.82-11,3.31-2.48,1.05-4.93,2.14-7.35,3.3-.53.26-.3,1,.15,1.14a6.32,6.32,0,0,1,3.37,3.48c.44,1.15.53,2.69,1.21,3.74a7.68,7.68,0,0,0,1.13,1.15,16.05,16.05,0,0,0,1.7,1.7c.45.34,0,0,.07-.11-.09.12.08.83.1,1l.21,2,.94-.54-4-2.33a9.82,9.82,0,0,0-3.76-1.1c-1.21-.19-2.3.94-3.28,1.54a32.67,32.67,0,0,1-6.46,3.4,28.28,28.28,0,0,1-7.14,1.12,30.47,30.47,0,0,1-9.24-.53c-2.27-.56-4.6-.76-6.86-1.31-1.32-.32-2.52-1-3.85-1.27-1.58-.36-3.22-.43-4.79-.83a13,13,0,0,0-5.44-.61c-.18,0-1.35.15-1.43.36.05-.13.61.28,0-.14-1.46-1-3.07-1.87-4.6-2.79l-.31,1.16,9.6-.32c1.47-.06,3,0,4.46-.16A6.65,6.65,0,0,0,467.08,87l4.53-2.9a.64.64,0,0,0,0-1.08l-3.75-2c-1.36-.74-2.86-1.4-4.15-2.27.24.16-.14-.14-.24-.24l-1-.95L459,74.17l-9.23-8.75L446.15,62a6.8,6.8,0,0,0-1.49-1.35,4.9,4.9,0,0,0-1.43-.15l-3.46-.28-11.25-.91-22.46-1.81c-.66-.06-1.33-.09-2-.16-.17,0,.2,0-.23-.05l-1.7-.32-11.36-2.15-.86-.17c-.78-.14-1.12,1.06-.33,1.21l9.4,1.78a53.09,53.09,0,0,0,5.61,1l20.21,1.63,12.22,1c2.31.19,4.7.58,7,.57.72,0-.15.1-.08-.16,0,.06.38.37.42.41l2.71,2.56,9,8.56c2.18,2.06,4.33,4.18,6.55,6.2a8.48,8.48,0,0,0,1.82,1.12l5.36,2.94,1.12.61V83l-3.73,2.39L465,86.88c-.18.11-.37.22-.54.34s.45,0,.11,0c-3.4-.11-6.87.23-10.27.35l-3.89.13a.63.63,0,0,0-.32,1.17l4.08,2.47c.43.26.87.66,1.39.61a6.48,6.48,0,0,0,.83-.24,8,8,0,0,1,2.34-.22c1.84.09,3.62.86,5.45,1.11a21.79,21.79,0,0,1,4.91,1.22,34.5,34.5,0,0,0,5.7,1.16,38.11,38.11,0,0,0,17.29.56,19,19,0,0,0,5.88-2.21c1.12-.61,2.22-1.26,3.31-1.93a13.16,13.16,0,0,0,2.05-1.3s.21-.1.22-.15-.58-.09-.29.07a5.79,5.79,0,0,0,1.56.26,7.91,7.91,0,0,1,1.2.2c-.26-.08.28.17.38.23l4.56,2.65a.63.63,0,0,0,.94-.54c-.11-1.08.05-2.73-.59-3.63a16.53,16.53,0,0,0-1.78-1.77,11.9,11.9,0,0,0-.87-.87c-.2-.18-.34-.52-.13,0-.69-1.6-.81-3.4-1.76-4.9a7.47,7.47,0,0,0-3.58-3l.15,1.14c2.06-1,4.14-1.92,6.23-2.82,3.14-1.35,6.46-2.9,9.86-3.43a47.46,47.46,0,0,1,11.3,0c.37,0,.76,0,1.13.11.21,0-.15,0-.05,0l.21,0,2.12.48L550,77.78A77,77,0,0,0,560.2,79l8.62.79c.61.06.93.15,1.43-.26,1-.82,1.87-1.8,2.79-2.7.42-.4,0-1.28-.61-1a23.45,23.45,0,0,1-8.5,1.47,14,14,0,0,1-6.34-1.63c-5.61-2.65-11-5.35-17.2-6.49-8.75-1.62-17.92-.52-26.46,1.77a74.82,74.82,0,0,0-15.64,6,3.08,3.08,0,0,0-.62.34c-.26.29.24-.1.27,0a8.19,8.19,0,0,0-1.15-.36c-1.06-.38-2.08-.87-3.12-1.3-2.74-1.16-6.07.17-8.4,1.74l.76.1a188.5,188.5,0,0,0-16.57-15A39.85,39.85,0,0,0,464.68,59a14.92,14.92,0,0,0-5.28-1.6,92.39,92.39,0,0,0-14.4-.8c-5.88,0-11.77,0-17.65,0-5,0-10,.19-14.9-.2l-22.12-1.71-.56,0C389,54.61,389,55.86,389.77,55.92Z"/></g></svg>