<svg xmlns="http://www.w3.org/2000/svg" viewBox="0 0 504.65 455.39"><defs><style>.cls-1{fill:#917b53;}</style></defs><g id="圖層_2" data-name="圖層 2"><path class="cls-1" d="M455.68,350.87l-7.36-16.18-13.23-11h-14.7s-17.65-10.3-14-10.3,11-52.31,11-52.31l-24.26-49.15-46.32-42.64L300.54,154l-44.11,8-35.29,13.88-32.35,22.79L180.7,182.5l-12.49-8.82-7.36,8.09-9.55-7.35L139.53,162v19.76l7.35,23.66-23.52,13.1-13.24,11.76L93.21,247.87,77,267.05,61.6,278l9.56,9.66a96.41,96.41,0,0,0,14,1.47l69.11-18.38,8.08,18.38,16.91,10.29,12.5,7.36,1.47,18.38L182.91,334,180,339.11l-4.41,6.61,8.08-.73,6.62,2.2,8.09-5.88L210.11,345l2.94-10.3,8.09-9.55,2.94,5.14,3.68-8.08,26.47-3.55-28.68,19,10.3.73,8.62,2.21v5.14l14.17-.73,8.08-7.35,5.89,4.41,14-17.65,9.55,1.47,11-7.22s17.65,2.08,16.18,4.28-14.71,8.82-14.71,8.82l-11,2.94-8.82,5.89,9.56,2.2,14,1.47,11.76-3.67v6.61l14-9.55L336.57,345l19.12-13.24,9.55,4.41,7.36.74,8.82-3.68,13.23,8.83,16.91,8.82h44.12Z"/></g></svg>