<svg xmlns="http://www.w3.org/2000/svg" viewBox="0 0 324.89 374.9"><defs><style>.cls-1{fill:#917b53;}.cls-2{fill:#f8f8fc;}</style></defs><g id="圖層_2" data-name="圖層 2"><path class="cls-1" d="M213.38,124.82s20-1.73,20.84-6.94,0-18.24,6.95-33,15.63,26.05,15.63,26.05l21.71-3.47,7.81-20.84s6.37-3.19,10.42,7.23,0,28.37,0,28.37L317,141.9v24.31s5.21,16.79,5.79,23.16-4.63,7.52-4.63,7.52l-27.21,11s7.53.58,9.84,6.37,8.69,4.63,8.69,4.63,8.39,10.42,7.23,17.66,0,13.6-8.1,15S302,263.18,302,263.18l-8.1-2.32S275,255.65,273,249.28s-6.37,4.93-6.37,4.93l-7.24,1.44s-17.65,44.29-25.76,53.26,4.63,4.34,4.63,4.34,13.32,3.77,13.32,9.26a9.11,9.11,0,0,1-4.06,7.82l-10.7,5.5s-2.61,5.5-5.79,5.21-.58,6.95-.58,6.95l-3.77,4.34-6.36-2.61-7-7.81s10.71,24.6,11,25.47-4.34,0-4.34,0l-1.16,3.47-9.55-8.68-4.92-11,1.44,9.26V374.9L198,366.51l-4.34-12.45-1.45-9.84s-16.5,4.34-27.21-2-9.55-9-16.21-9.55-30.39,3.76-30.39,3.76,3.47,2.6-15.63-7.53l-17.37-4.05-36.18-22s-19.39-41.1-27.78-61.65S6.71,199.5,12.21,171.71,64,113.82,65.47,91.25,80.23,44.07,87.47,29s19.1-16.5,26.63-19.11S172.86-3.69,194,18s28.36,39.07,31.26,63.39S213.38,124.82,213.38,124.82Z"/><ellipse class="cls-2" cx="257.81" cy="154.73" rx="5.26" ry="9.48" transform="translate(-26.75 57.6) rotate(-12.13)"/></g></svg>