<svg xmlns="http://www.w3.org/2000/svg" viewBox="0 0 504.65 455.39"><defs><style>.cls-1{fill:#917b53;}.cls-2{fill:#f8f8fc;}</style></defs><g id="圖層_2" data-name="圖層 2"><path class="cls-1" d="M301.38,166.1s20-1.74,20.84-6.95,0-18.24,6.95-33,15.63,26,15.63,26l21.71-3.47,7.81-20.84s6.37-3.18,10.42,7.24,0,28.36,0,28.36L405,183.17v24.32s5.21,16.79,5.79,23.15-4.63,7.53-4.63,7.53l-27.21,11s7.53.58,9.84,6.37,8.69,4.63,8.69,4.63,8.39,10.42,7.23,17.65,0,13.61-8.1,15.05S390,304.45,390,304.45l-8.1-2.31S363,296.93,361,290.56s-6.37,4.92-6.37,4.92l-7.24,1.45s-17.65,44.28-25.76,53.25,4.63,4.35,4.63,4.35,13.32,3.76,13.32,9.26a9.08,9.08,0,0,1-4.06,7.81l-10.7,5.5s-2.61,5.5-5.79,5.21-.58,6.95-.58,6.95l-3.77,4.34-6.36-2.6-6.95-7.82s10.71,24.6,11,25.47-4.34,0-4.34,0l-1.16,3.48-9.55-8.69-4.92-11,1.44,9.27v14.47l-7.81-8.4-4.34-12.44-1.45-9.84s-16.5,4.34-27.21-2-9.55-9-16.21-9.55-30.39,3.76-30.39,3.76,3.47,2.61-15.63-7.52l-17.37-4.06-36.18-22S117.87,303,109.48,282.45,94.71,240.77,100.21,213,152,155.1,153.47,132.52s14.76-47.18,22-62.23,19.1-16.5,26.63-19.1,58.76-13.61,79.89,8.1,28.36,39.08,31.26,63.39S301.38,166.1,301.38,166.1Z"/><ellipse class="cls-2" cx="345.81" cy="196" rx="5.26" ry="9.48" transform="translate(-33.45 77.01) rotate(-12.13)"/></g></svg>