<svg xmlns="http://www.w3.org/2000/svg" viewBox="0 0 504.65 455.39"><defs><style>.cls-1{fill:#917b53;}</style></defs><g id="圖層_2" data-name="圖層 2"><path class="cls-1" d="M288.87,195.49l-5.36,24.12,2.68,7.5-9.12,31.1v35.38l-4.28,33.35,4.28,21.86V419l-9.64,9.11-19.3-5.36V410.44l7.5-21.44,3.22-57.36-8-35.91L238,263l-8,14.47,5.36,17.16.54,17.15,11.26,41.28-8,18.61.53,15.69-12.33,26.27L203.1,428.13,192.38,426l-9.11-7.5v-6.44l16.62-7,22-36.45V349.87L203.1,308.44,194,278l-10.72-47.71-15.55,11.26-11.79,3.75-10.19-7.5L134,230.33l8,43.42-3.75,30,4.29,37,4.82,28.41-5.89,11.26-10.19,4.28-16.62-1.07L112,371.7l7.51-10.57,3.21-68.62-8-44.91V230.33L99.11,195.49v-45l5.36-38.06s8.57-14.47,10.72-15,21.44-22.51,21.44-22.51l19.3-9.12v-7.5c0-1.61,5.36-3.76,5.36-3.76h13.94S189.7,50.22,194,50.22h22l18.22,9.65,1.61,10.18-2.14,9.65,7,8.58-.54,10.18-12.33,16.08-17.69-2.68-12.33,8,34.31,2.68,17.15.54L291,152.07l27.34,44.49,35.38,57.89,23,27.88,33.24,15L448.61,315,462,320.92l5.36,11.26V342.9l-19.84-1.61-29.48-16.61-39.67-11.8L353.2,290.37l-27.34-30.56L301.2,226,289.41,193Z"/></g></svg>