<svg xmlns="http://www.w3.org/2000/svg" viewBox="0 0 636.83 148.59"><defs><style>.cls-1{fill:#231815;}</style></defs><g id="圖層_1" data-name="圖層 1"><path class="cls-1" d="M389.22,154.05c-.35-2.07-.58-4.12-.87-6.16l-.82-6.07c-.56-4-1.22-8-2-11.85a78.73,78.73,0,0,0-7.5-21.83,49.88,49.88,0,0,0-6.34-9.34,101.07,101.07,0,0,0-8.21-8.46,55.29,55.29,0,0,1-8.31-9.66,28.66,28.66,0,0,1-1.59-2.87c-.43-.94-.83-1.78-1.31-2.63A7.72,7.72,0,0,0,350.53,73a3.46,3.46,0,0,0-2.67-.84,3.8,3.8,0,0,1,3.24-.22A9,9,0,0,1,354,73.76a22.4,22.4,0,0,1,2.24,2.36c.65.73,1.31,1.43,2,2.09a88.44,88.44,0,0,0,9.31,7.32c1.65,1.2,3.33,2.43,5,3.77a45,45,0,0,1,4.8,4.4,52.64,52.64,0,0,1,4.27,5l1.83,2.75c.63.91,1.1,1.9,1.65,2.85a59.47,59.47,0,0,1,6.68,24.82A81.43,81.43,0,0,1,389.22,154.05Z"/><path class="cls-1" d="M603.52,150.79a11.47,11.47,0,0,1-2.79-4.06,34.35,34.35,0,0,1-1.55-4.62c-.84-3-1.55-6.07-2.2-9.12-.31-1.53-.62-3.05-.89-4.58a33.88,33.88,0,0,1-.64-5,15.41,15.41,0,0,1,.93-6,23,23,0,0,1,2.72-4.89c1-1.38,2-2.57,3-3.82s2-2.43,3.1-3.6a90.51,90.51,0,0,1,6.7-6.73,72,72,0,0,1,15.5-11c-3.47,5.4-7.21,10.3-10.86,15.23l-10.89,14.57a16.25,16.25,0,0,0-1.9,3.15,8.59,8.59,0,0,0-.69,3.11c-.09,1.24,0,2.66.06,4.23s.11,3.11.13,4.67c0,3.11,0,6.24-.14,9.37S602.59,147.68,603.52,150.79Z"/><path class="cls-1" d="M612.31,155.51a.79.79,0,0,0,.85-.56.4.4,0,0,0,0-.37c-.08,0-.11-.18-.18-.28a4.39,4.39,0,0,1-.49-1.18,4.89,4.89,0,0,1,0-2,10.56,10.56,0,0,1,1.31-3c.47-.8.91-1.51,1.39-2.24a48.81,48.81,0,0,1,6.62-7.91,48.13,48.13,0,0,1,8.11-6.35,32.8,32.8,0,0,1,9.8-4.19,43.41,43.41,0,0,1-5.63,8.9,73,73,0,0,1-6.73,7.39,74.31,74.31,0,0,1-7.62,6.47c-.67.49-1.39,1-2.06,1.45s-1.2.76-1.59,1.06a2.12,2.12,0,0,0-.51.48,12.39,12.39,0,0,0-.43,1.35,2.84,2.84,0,0,1-.51.92,1.88,1.88,0,0,1-.86.54C613.25,156.12,612.52,156,612.31,155.51Z"/><path class="cls-1" d="M388.33,62.62a77.11,77.11,0,0,1,10.43,20.57,96.63,96.63,0,0,1,4.7,22.68,139.35,139.35,0,0,1,0,22.93,178.29,178.29,0,0,1-3.15,22.62,157.22,157.22,0,0,1-3.14-22.6c-.61-7.49-1.05-14.91-1.7-22.24S394,92,392.68,84.74,389.85,70.18,388.33,62.62Z"/><path class="cls-1" d="M345.15,94.55c2,2.46,4,4.78,6.08,7.07s4.12,4.54,6.16,6.87,4.05,4.74,5.93,7.31l1.4,2c.45.67.87,1.35,1.31,2,.86,1.36,1.69,2.74,2.43,4.16a86.27,86.27,0,0,1,7.08,17.68,111.6,111.6,0,0,1,3.54,18.46l-.92-.78a1.35,1.35,0,0,0,1.48-.24,1.65,1.65,0,0,0,.59-.8,1.39,1.39,0,0,0-.1-1.1,1.56,1.56,0,0,1,.72,1.13,2.53,2.53,0,0,1-.23,1.47,3.13,3.13,0,0,1-1,1.21,3.06,3.06,0,0,1-1.7.53h-.51l-.42-.77c-2.94-5.56-5.42-11.23-7.89-16.78s-4.91-11-7.63-16.29c-1.38-2.64-2.77-5.23-4.29-7.79L352.48,112C349.41,106.64,346.33,100.86,345.15,94.55Z"/><path class="cls-1" d="M287.16,115.58c1.7,1.17,3.23,2.24,4.78,3.38a39.75,39.75,0,0,1,4.43,3.82,44,44,0,0,1,7.05,9.36,43.23,43.23,0,0,1,4.31,10.92,30.49,30.49,0,0,1,.61,11.87,90.82,90.82,0,0,1-6.45-9.51c-1.9-3.13-3.7-6.23-5.44-9.37s-3.47-6.29-5.14-9.57c-.82-1.64-1.64-3.29-2.44-5.1A19.76,19.76,0,0,1,287.16,115.58Z"/><path class="cls-1" d="M319,117.67a56,56,0,0,1-4,11.1,95.41,95.41,0,0,1-5.53,10,99.46,99.46,0,0,1-6.61,9.27,65.48,65.48,0,0,1-8.08,8.46l-.56-1.14c.61.31,1.22.64,1.82,1-.68.19-1.35.35-2,.5l-.81.17.25-1.31a52.36,52.36,0,0,1,3.69-11.2,73.15,73.15,0,0,1,12.79-19.18A45.85,45.85,0,0,1,319,117.67Z"/><path class="cls-1" d="M243.08,107.19a38.72,38.72,0,0,1,5,3.79,55.6,55.6,0,0,1,4.4,4.28,73.37,73.37,0,0,1,7.51,9.55l1.63,2.56,1.55,2.64a20.6,20.6,0,0,1,1.52,3.4,14.93,14.93,0,0,1,.58,4,38.55,38.55,0,0,1-.76,6.19,9.81,9.81,0,0,0,.08,4.68l-2.39-.41a16,16,0,0,0,4.91-2.75,10.5,10.5,0,0,1-3,5.65l-.93,1-1.47-1.37a9.43,9.43,0,0,1-2.15-3.16,14.65,14.65,0,0,1-.92-3.5c-.34-2.25-.35-4.23-.66-5.76a7,7,0,0,0-.57-1.9,14.33,14.33,0,0,0-1.12-2l-1.54-2.47L253.27,129c-2-3.39-3.89-6.85-5.63-10.45A74.83,74.83,0,0,1,243.08,107.19Z"/><path class="cls-1" d="M265,117.68a19.34,19.34,0,0,1,6.46,6.28,26.31,26.31,0,0,1,3.51,8,26,26,0,0,1,.71,8.75,19,19,0,0,1-2.8,8.59,47.34,47.34,0,0,1-3.46-7.9c-.88-2.53-1.58-5-2.21-7.49s-1.15-5-1.57-7.67A45.14,45.14,0,0,1,265,117.68Z"/><path class="cls-1" d="M286,127.81a15.39,15.39,0,0,1,3.39,5.8,19.3,19.3,0,0,1,1,6,19,19,0,0,1-.87,6,15.3,15.3,0,0,1-3.29,5.86,17.11,17.11,0,0,1-3-5.95,21.77,21.77,0,0,1-.09-11.66A17.45,17.45,0,0,1,286,127.81Z"/><path class="cls-1" d="M224.14,127.11a7.92,7.92,0,0,0-3.27,2.56c-.79,1-1.47,2-2.19,3.14-1.56,2.34-3.22,4.54-5,6.65s-3.54,4.17-5.53,6.18a48,48,0,0,1-6.84,5.9,20.81,20.81,0,0,1,1.53-9.28,29,29,0,0,1,4.65-7.87,30,30,0,0,1,6.8-6.1,14,14,0,0,1,4.71-2.08A6.06,6.06,0,0,1,224.14,127.11Z"/><path class="cls-1" d="M165.8,151.51a67.56,67.56,0,0,1-.34-10.31c.1-3.26.27-6.43.52-9.59s.57-6.32,1-9.55c.12-.81.22-1.62.35-2.44s.28-1.53.36-2.26a5.29,5.29,0,0,0-.92-4.35,4,4,0,0,1,2.82,1,7.68,7.68,0,0,1,1.93,2.48,16.52,16.52,0,0,1,1.05,2.71c.27.84.51,1.7.7,2.56a35.06,35.06,0,0,1,.71,10.51,35.61,35.61,0,0,1-2.37,10.27A26.09,26.09,0,0,1,165.8,151.51Z"/><path class="cls-1" d="M193.16,109.87a12.2,12.2,0,0,0-1.46,5.66c-.08,1.88,0,3.85-.17,6A19.85,19.85,0,0,1,191,125a25.09,25.09,0,0,1-1.12,3.3,45.65,45.65,0,0,1-3,5.72c-1,1.75-2,3.35-3,5s-1.93,3.34-2.91,5c-2,3.42-3.79,7-6.11,10.72a29.17,29.17,0,0,1,.23-13,37.51,37.51,0,0,1,2-6.19c.41-1,.9-2,1.37-3s1-1.87,1.55-2.76c1.06-1.77,2.1-3.41,3-5,.48-.79.89-1.57,1.3-2.34s.73-1.54,1.08-2.45a42.33,42.33,0,0,1,2.57-5.9A9,9,0,0,1,193.16,109.87Z"/><path class="cls-1" d="M198.76,121.58a14.12,14.12,0,0,1,1.64,10.54,37.93,37.93,0,0,1-3.73,9.25c-1.36,2.66-2.77,5.3-4.28,8a79.07,79.07,0,0,1-5.26,8.33,22.34,22.34,0,0,1-.72-10.3,31,31,0,0,1,3.14-9.68,85.38,85.38,0,0,1,5-7.83A47,47,0,0,0,198.76,121.58Z"/><path class="cls-1" d="M120.1,113.5a21.94,21.94,0,0,1,10.34,4.94,28.52,28.52,0,0,1,7.22,9.08,27.48,27.48,0,0,1,3,11.29A19.81,19.81,0,0,1,137.88,150c-1.24-3.73-2.24-7-3.46-10.05a95.56,95.56,0,0,0-3.91-8.85c-1.44-2.86-3-5.67-4.76-8.52S122.09,116.88,120.1,113.5Z"/><path class="cls-1" d="M149.61,103.57c1.52,1.89,3.18,3.3,4.72,5.28a21.19,21.19,0,0,1,3.4,6.78,37.34,37.34,0,0,1,1.37,7.18c.24,2.34.36,4.58.44,6.89a63.62,63.62,0,0,1-1,14,33.21,33.21,0,0,1-5.43,13.21c-.35-4.84-.54-9.23-.84-13.66s-.58-8.82-.69-13.32l0-3.39c0-1.14,0-2.27,0-3.37.05-2.2.1-4.32,0-6.39a31.8,31.8,0,0,0-.74-6.18C150.36,108.47,149.48,106,149.61,103.57Z"/><path class="cls-1" d="M91,115.34A25.62,25.62,0,0,1,94.07,125a35.92,35.92,0,0,1-.15,9.88,34.66,34.66,0,0,1-1.1,4.82,44.33,44.33,0,0,1-1.64,4.46c-.59,1.39-1.17,2.71-1.67,4.08a18.43,18.43,0,0,0-1.1,4.62,8.83,8.83,0,0,1-2.84-4.62A18.81,18.81,0,0,1,85,142.9c0-1.72.23-3.31.39-4.8s.38-3,.61-4.49c.47-3,1-6,1.8-9A50.26,50.26,0,0,1,91,115.34Z"/><path class="cls-1" d="M110.91,130.61a14.48,14.48,0,0,1,3.14,5.37,17.14,17.14,0,0,1,.86,5.38,16.79,16.79,0,0,1-.85,5.38,14.38,14.38,0,0,1-3.15,5.37,14.34,14.34,0,0,1-3.14-5.37,17.09,17.09,0,0,1-.86-5.38,16.87,16.87,0,0,1,.87-5.38A14.58,14.58,0,0,1,110.91,130.61Z"/><path class="cls-1" d="M77.9,101.15a20.59,20.59,0,0,1-.67,7.69,56.47,56.47,0,0,1-2.47,7.1c-.91,2.25-1.8,4.35-2.62,6.51s-1.65,4.3-2.36,6.48c-1.48,4.33-2.78,8.72-4,13.25-.57,2.26-1.12,4.55-1.68,6.9l-.81,3.56-.22.91a1.21,1.21,0,0,0-.09.64c0,.46.19,1.12.87,1a.75.75,0,0,1-.43.31,1,1,0,0,1-.59-.05,2.37,2.37,0,0,1-.94-.69,2.8,2.8,0,0,1-.56-1.1l-.27-.91c-.38-1.22-.63-2.46-.89-3.71a44.08,44.08,0,0,1-.63-7.61,48,48,0,0,1,2.62-15.06,50,50,0,0,1,7.08-13.46C72.22,108.88,75.25,105.52,77.9,101.15Z"/><path class="cls-1" d="M118.89,131.3A12.43,12.43,0,0,1,122,136a13,13,0,0,1,.87,4.69,12.69,12.69,0,0,1-.86,4.68,12.23,12.23,0,0,1-3.14,4.68,12.27,12.27,0,0,1-3.15-4.68,12.88,12.88,0,0,1-.85-4.68,13.16,13.16,0,0,1,.86-4.69A12.35,12.35,0,0,1,118.89,131.3Z"/><path class="cls-1" d="M46.86,127.15a26.47,26.47,0,0,1,2.32,7.13c.43,2.22.71,4.26,1,6.18s.55,3.77.88,5.76.78,4.06,1.5,6.83a10.21,10.21,0,0,1-7.11-4,15,15,0,0,1-3.19-7.51,17.64,17.64,0,0,1,.68-7.72A17,17,0,0,1,46.86,127.15Z"/><path class="cls-1" d="M30.19,106.43a58.52,58.52,0,0,1,1,11.26c0,3.64-.13,7.21-.44,10.76s-.78,7.1-1.44,10.68a57.05,57.05,0,0,1-3,10.9,34.23,34.23,0,0,1-3.28-11,51,51,0,0,1,2-22.27A34.64,34.64,0,0,1,30.19,106.43Z"/><path class="cls-1" d="M9.69,130.61a14.64,14.64,0,0,1,1.67,2.73A19.45,19.45,0,0,1,12.45,136a24,24,0,0,1,1.09,5.36,25.19,25.19,0,0,1-.07,5.35,23,23,0,0,1-1.32,5.4L9.49,150a21.16,21.16,0,0,1,2,.58,13.38,13.38,0,0,1,2.12.94A14,14,0,0,1,12,153.17a18.11,18.11,0,0,1-1.71,1.28l-1.26.84-1.4-3A20.82,20.82,0,0,1,6,146.93a23.88,23.88,0,0,1-.26-5.47A21.9,21.9,0,0,1,6.77,136a19.13,19.13,0,0,1,1.15-2.71A14.09,14.09,0,0,1,9.69,130.61Z"/></g><g id="圖層_2" data-name="圖層 2"><path class="cls-1" d="M570,135.8l-2.6-5.72-4.68-3.91h-5.21s-6.24-3.64-4.94-3.64S556.5,104,556.5,104l-8.58-17.39L531.53,71.54l-16.4-5.41L499.52,69,487,73.88,475.59,82l-2.86-5.73L468.3,73.1,465.7,76l-3.38-2.6L458.16,69v7l2.6,8.38L452.43,89l-4.68,4.16-6,6.22L436,106.14,430.58,110l3.38,3.42a34.16,34.16,0,0,0,5,.52l24.45-6.51,2.86,6.51,6,3.64,4.42,2.6.52,6.5-3.64,3.13-1,1.82L470.91,134l2.86-.26,2.34.78,2.86-2.08,4.16,1.3,1-3.64,2.87-3.39,1,1.83,1.3-2.87,9.36-1.25-10.14,6.72,3.64.26,3.05.78V134l5-.26,2.87-2.6,2.08,1.56,4.94-6.25,3.38.52,3.91-2.55s6.24.73,5.72,1.51S518,129,518,129l-3.91,1L511,132.16l3.38.78,4.95.52,4.16-1.3v2.34l4.94-3.38-.52,2.6,6.77-4.68L538,130.6l2.6.26,3.12-1.3,4.69,3.12,6,3.12H570Z"/><path class="cls-1" d="M570.57,135.48,569,132a7.83,7.83,0,0,0-1.32-2.51c-1.11-1.05-2.36-2-3.53-2.94a2.79,2.79,0,0,0-2.18-1c-1.44,0-2.89,0-4.33,0,0,0,.35.2.11,0a3.82,3.82,0,0,0-.59-.35c-.68-.41-1.36-.83-2-1.26a18.61,18.61,0,0,1-1.71-1.19c-.06,0-.32-.34-.39-.35s-.72,1.14.09.58c.61-.41.81-1.47,1-2.11a85.2,85.2,0,0,0,1.95-9.74,51.86,51.86,0,0,0,1.06-6.87,2.64,2.64,0,0,0-.44-1.34L555,99.59l-4.52-9.16c-.67-1.35-1.22-3.16-2.21-4.32a57.93,57.93,0,0,0-4.89-4.5l-7.68-7.07L533,72a6.06,6.06,0,0,0-1.26-1.06,13.51,13.51,0,0,0-1.89-.63l-4.2-1.38-9.13-3a4.24,4.24,0,0,0-1.55-.37,19.64,19.64,0,0,0-2.39.43l-10,1.81a22.67,22.67,0,0,0-4.34,1l-9.1,3.58c-.74.29-1.54.53-2.26.89a14.58,14.58,0,0,0-1.75,1.19l-8.1,5.7-1.75,1.24.86.22L474.81,79a20.54,20.54,0,0,0-1.52-3,8.42,8.42,0,0,0-2-1.48l-2.71-1.91a.64.64,0,0,0-.76.1l-2.6,2.86.76-.1-2.27-1.74a9.19,9.19,0,0,1-1.28-1.07c-1.24-1.4-2.58-2.73-3.87-4.08a.63.63,0,0,0-1.07.44v4.24a14.22,14.22,0,0,0,.09,3.13c.63,2.75,1.7,5.46,2.54,8.16l.28-.7-7.66,4.26a10.66,10.66,0,0,0-1.89,1.45c-1.18,1-2.4,2.06-3.54,3.15a146.41,146.41,0,0,0-10.91,12,8.5,8.5,0,0,1-2.19,1.94l-4,2.82a.64.64,0,0,0-.12,1l2.61,2.63a5.08,5.08,0,0,0,.83.84,5.32,5.32,0,0,0,1.91.37,12.16,12.16,0,0,0,3.8.2c.66-.13,1.32-.35,2-.52l17.11-4.55,5.16-1.38-.71-.28,2.24,5.08a4.71,4.71,0,0,0,.85,1.65,10.08,10.08,0,0,0,1.58,1q4.39,2.67,8.82,5.28l-.31-.54.36,4.45c0,.27-.06,1.76.16,2s0-.29.18-.33c-.07,0-.12.13-.18.15a4.7,4.7,0,0,0-.9.77,12.62,12.62,0,0,0-3,2.92c-.7,1.23-1.47,2.39-2.25,3.56a.62.62,0,0,0,.54.94l1.78-.16a7.14,7.14,0,0,1,.92-.08c.13,0,.06,0,.4.1a8.83,8.83,0,0,0,1.9.63c.49,0,.73-.21,1.12-.49l1.81-1.32c.7-.51.09,0,0-.25a2.15,2.15,0,0,0,.51.15l3.64,1.14a.64.64,0,0,0,.77-.44l.55-1.93c.12-.42.27-.84.36-1.27,0-.12.07-.24.1-.36s-.25.36-.06.11c.88-1.13,1.86-2.2,2.79-3.29l-1-.13,1,1.82a.63.63,0,0,0,1.08,0l1.3-2.86-.54.31,9.36-1.26-.31-1.16-10.15,6.72a.63.63,0,0,0,.32,1.16c1.17.09,2.39.09,3.55.26l.27.07.94.24,1.76.45-.45-.6V134a.62.62,0,0,0,.62.62,35.68,35.68,0,0,0,5-.25,3.3,3.3,0,0,0,1.4-1l2-1.78-.76.1,2.08,1.56a.62.62,0,0,0,.76-.1l4.94-6.24-.6.16,2.89.44a1.91,1.91,0,0,0,1.66-.44c1-.62,2-1.2,2.88-1.89a2.49,2.49,0,0,1,.32-.2c-.16.07-.39,0-.15.09.43.11.91.12,1.35.19s1.08.17,1.62.28a12.58,12.58,0,0,0,1.76.44s.34.17.35.16v-.56l-.09.09c-.05,0-.18.17-.24.2-.54.29-1,.69-1.59,1a30.46,30.46,0,0,1-3,1.6c-.19.08,0,0,0,0l-.37.09c-.59.14-1.18.32-1.77.48a7.49,7.49,0,0,0-2.25.77c-.92.59-1.83,1.22-2.74,1.83a.63.63,0,0,0,.15,1.14,53.14,53.14,0,0,0,6.75,1.14,5.74,5.74,0,0,0,2.51,0l3.56-1.11-.8-.6v2.34a.64.64,0,0,0,.95.54l4.94-3.38-.92-.71-.52,2.6c-.1.49.43,1,.92.71l6.76-4.68h-.63a33.26,33.26,0,0,0,3.38,1.56,6.2,6.2,0,0,0,3.38.2c.75-.27,1.48-.62,2.21-.92.1,0,.53-.14.6-.25l-.45-.07.09.06c0,.07.36.24.41.28,1.31.87,2.61,1.79,3.94,2.63.86.53,1.78,1,2.68,1.42a27.62,27.62,0,0,0,3.53,1.85,11.05,11.05,0,0,0,3.2.09H570a.63.63,0,0,0,0-1.25H555.49a4.22,4.22,0,0,0-.87,0c-.35.08.09.07,0,0-.7-.38-1.42-.74-2.14-1.11-1.29-.68-2.65-1.29-3.89-2.06-1.48-.9-2.86-2.24-4.44-2.95-.59-.27-1,0-1.6.29l-1.39.58c-.18.07-.36.17-.54.22s0,0-.12,0a8.19,8.19,0,0,1-1.31-.13l-.77-.08c-.09,0-.57-.08-.25,0s-.05,0-.12-.08a5.86,5.86,0,0,0-.57-.26L536,129c-.57-.26-1.14-.7-1.75-.44a13.82,13.82,0,0,0-2,1.41l-4.67,3.23.92.7.52-2.6c.09-.49-.44-1-.92-.7l-5,3.38.94.54v-2.34a.62.62,0,0,0-.79-.6l-3.28,1c-.22.07-.45.16-.68.22s0,0-.13,0a12.84,12.84,0,0,1-1.64-.17l-2.14-.22-.83-.09-.12,0c-1.12-.2-2.23-.51-3.33-.76l.15,1.14,2.67-1.78a8.71,8.71,0,0,1,2.37-.79,21.48,21.48,0,0,0,5.64-2.54c.6-.36,2.08-1,1.86-2s-1.55-1-2.21-1.17a28.52,28.52,0,0,0-3.66-.61,2.32,2.32,0,0,0-1.75.64l-1.91,1.25a6.71,6.71,0,0,0-.71.47c-.41.33-.26,0,.13.15a23.71,23.71,0,0,0-3.36-.52.64.64,0,0,0-.61.16l-4.94,6.25.75-.1-2.08-1.56a.62.62,0,0,0-.76.1l-1.78,1.62a8.07,8.07,0,0,0-.87.78c-.31.4.45.12,0,0a11.14,11.14,0,0,0-2.64.13l-2.15.11.63.63v-1.82a.63.63,0,0,0-.46-.6,28.41,28.41,0,0,0-3.24-.81c-1.19-.17-2.42-.17-3.62-.26l.31,1.17,10.15-6.72c.46-.31.35-1.26-.32-1.17l-7.36,1c-.61.08-1.86,0-2.38.4s-.53,1-.71,1.38l-.75,1.66h1.08l-1-1.82a.64.64,0,0,0-1-.13,37.9,37.9,0,0,0-2.85,3.37,15.22,15.22,0,0,0-1.21,3.93l.77-.43L479.66,132c-1.16-.36-1.8.47-2.73,1.15a6.89,6.89,0,0,0-.82.6c-.44.44,0,0,.05.13a6.11,6.11,0,0,0-2.05-.68,11.15,11.15,0,0,0-3.2.17l.54.94c.64-1,1.32-1.92,1.9-2.94a8.12,8.12,0,0,1,2.33-2.57c.67-.58,2-1.31,2.08-2.27a36,36,0,0,0-.34-4.26c-.07-.83.11-2.12-.59-2.67a33.74,33.74,0,0,0-3.73-2.19c-2.06-1.21-4-2.59-6.14-3.73a2.14,2.14,0,0,1-.41-.25c.4.35.13.11.06-.12a18.16,18.16,0,0,0-.93-2.12l-1.78-4a.63.63,0,0,0-.71-.29l-12.34,3.28-8.47,2.25c-1.31.35-2.82,1-4.19.93-1.2-.08-2.38-.3-3.58-.4-.4,0-.52-.18-.25,0-.16-.13-.3-.31-.45-.46L431,109.56l-.12,1,3.42-2.43a14.69,14.69,0,0,0,2.36-1.77c1.95-2.08,3.62-4.43,5.52-6.55s3.83-4,5.77-6c.75-.75,1.58-1.43,2.38-2.14L452.21,90c.19-.17.38-.36.58-.51s-.17.1.13-.08c2.68-1.58,5.44-3,8.15-4.53a.64.64,0,0,0,.29-.71c-.83-2.69-1.68-5.38-2.51-8.08,0-.09-.11-.46-.07-.14,0-.14,0-.3,0-.44,0-.77,0-1.53,0-2.3V69l-1.06.44c1.31,1.39,2.59,2.83,3.95,4.17a39.19,39.19,0,0,0,3.72,2.92.61.61,0,0,0,.75-.1l2.61-2.86-.76.1,2.41,1.7,1.56,1.1c.13.1.28.18.4.29s-.2-.35-.11-.06a25.69,25.69,0,0,0,1.53,3.06l1.27,2.53a.62.62,0,0,0,.85.23l5.83-4.11,4-2.83,1.16-.82c.1-.07.61-.41.32-.26a26.69,26.69,0,0,1,2.61-1l4.64-1.82a41.9,41.9,0,0,1,5.45-2.09c2.64-.63,5.38-1,8.05-1.47,2.42-.43,4.84-1,7.28-1.32-.36.05-.31,0,0,.1s.86.28,1.27.42l4.05,1.33,9.17,3c.4.13.8.29,1.2.39s.43.26.14,0l1.36,1.26,6.81,6.27,6.8,6.26a11.94,11.94,0,0,1,1.38,1.27c-.2-.25,0,.07.06.18.16.35.35.7.52,1.05,2.56,5.19,4.92,10.54,7.71,15.61a2.46,2.46,0,0,0,.21.43c-.13,0,0-.85-.14.06-.16,1.1-.32,2.19-.49,3.28-.52,3.36-1.07,6.72-1.77,10a25,25,0,0,1-1,3.71c-.11.29-.52.83,0,.49-.39.25-.91.19-.78.87.17.93,1.86,1.73,2.54,2.17a14.65,14.65,0,0,0,2.87,1.76c1,.37,2.55.09,3.64.09.24,0,1.62.18,1.82,0-.08.07-.48-.4-.23-.06a3.79,3.79,0,0,0,.68.58c1.17,1,2.31,2,3.52,2.92.4.31.22.07.4.53.28.69.62,1.36.92,2l1.51,3.32C569.82,136.85,570.9,136.21,570.57,135.48Z"/></g></svg>