<svg xmlns="http://www.w3.org/2000/svg" viewBox="0 0 618.95 144.42"><defs><style>.cls-1{fill:#231815;}</style></defs><g id="圖層_1" data-name="圖層 1"><path class="cls-1" d="M373.31,149.78c-.35-2-.58-4-.87-6l-.83-5.93c-.56-3.93-1.21-7.79-2-11.58a77.46,77.46,0,0,0-7.34-21.3,49.31,49.31,0,0,0-6.17-9.11,101,101,0,0,0-8-8.27A54.5,54.5,0,0,1,340,78.12c-.55-.92-1.08-1.85-1.54-2.81s-.81-1.75-1.27-2.58a7.38,7.38,0,0,0-1.68-2.13,3.31,3.31,0,0,0-2.6-.84,3.75,3.75,0,0,1,3.17-.23,9.06,9.06,0,0,1,2.81,1.77,22.53,22.53,0,0,1,2.2,2.31c.63.71,1.28,1.39,2,2a88,88,0,0,0,9.12,7.13c1.61,1.17,3.26,2.37,4.87,3.68a44.1,44.1,0,0,1,4.7,4.31,49.13,49.13,0,0,1,4.18,4.92,55.69,55.69,0,0,1,3.41,5.49,57.88,57.88,0,0,1,6.52,24.29A78.69,78.69,0,0,1,373.31,149.78Z"/><path class="cls-1" d="M582.73,146.6a11.22,11.22,0,0,1-2.76-4,34.32,34.32,0,0,1-1.52-4.52c-.84-3-1.54-5.93-2.18-8.91-.31-1.49-.62-3-.88-4.47a31.31,31.31,0,0,1-.63-4.94,15.06,15.06,0,0,1,.91-5.88,21.73,21.73,0,0,1,2.67-4.8c1-1.35,1.91-2.51,2.89-3.73s2-2.38,3-3.53a92.41,92.41,0,0,1,6.56-6.57A69.83,69.83,0,0,1,606,84.59c-3.37,5.31-7,10.11-10.56,14.94l-10.62,14.23a16.49,16.49,0,0,0-1.85,3.06,8.35,8.35,0,0,0-.67,3c-.09,1.2,0,2.59,0,4.12s.1,3,.12,4.56c0,3,0,6.1-.17,9.17S581.84,143.56,582.73,146.6Z"/><path class="cls-1" d="M591.32,151.21a.75.75,0,0,0,.82-.55.41.41,0,0,0,0-.36c-.08,0-.11-.18-.19-.28a3.77,3.77,0,0,1-.48-1.14,4.92,4.92,0,0,1,0-1.95,10.68,10.68,0,0,1,1.28-3c.46-.79.88-1.48,1.35-2.2a47.07,47.07,0,0,1,6.45-7.74,46.07,46.07,0,0,1,7.95-6.19,31.26,31.26,0,0,1,9.62-4.05,41.46,41.46,0,0,1-5.45,8.75,68.65,68.65,0,0,1-6.56,7.24,72,72,0,0,1-7.46,6.3c-.66.48-1.36,1-2,1.41s-1.18.74-1.56,1a2,2,0,0,0-.5.45,9.68,9.68,0,0,0-.43,1.32,2.91,2.91,0,0,1-.51.91,1.81,1.81,0,0,1-.85.52C592.24,151.82,591.52,151.69,591.32,151.21Z"/><path class="cls-1" d="M372.44,60.44A74.87,74.87,0,0,1,382.7,80.52a94,94,0,0,1,4.62,22.18,135.23,135.23,0,0,1,0,22.41,170.77,170.77,0,0,1-3.14,22.11A150.46,150.46,0,0,1,381,125.13c-.61-7.32-1-14.57-1.68-21.72s-1.51-14.22-2.73-21.34S373.88,67.85,372.44,60.44Z"/><path class="cls-1" d="M330.24,91.64c2,2.39,4,4.66,6,6.89s4,4.42,6,6.69,4,4.62,5.81,7.14l1.37,1.92c.44.65.85,1.32,1.28,2,.84,1.33,1.66,2.68,2.38,4.07A83.23,83.23,0,0,1,360,137.62a106.89,106.89,0,0,1,3.41,18.06l-.92-.78a1.31,1.31,0,0,0,1.44-.21,1.69,1.69,0,0,0,.58-.78,1.39,1.39,0,0,0-.1-1.08,1.53,1.53,0,0,1,.71,1.1,2.61,2.61,0,0,1-.21,1.45,3.07,3.07,0,0,1-1,1.2,3,3,0,0,1-1.67.52h-.51l-.41-.78c-2.9-5.43-5.35-11-7.77-16.38s-4.81-10.76-7.47-15.91c-1.34-2.57-2.69-5.1-4.17-7.6l-4.55-7.7C334.36,103.49,331.36,97.82,330.24,91.64Z"/><path class="cls-1" d="M273.57,112.19c1.68,1.14,3.18,2.17,4.71,3.28a38.91,38.91,0,0,1,4.35,3.72A42.16,42.16,0,0,1,293.74,139a29.6,29.6,0,0,1,.53,11.62,85,85,0,0,1-6.37-9.26c-1.87-3-3.64-6.08-5.33-9.14s-3.38-6.14-5-9.35c-.8-1.61-1.59-3.23-2.37-5A19.32,19.32,0,0,1,273.57,112.19Z"/><path class="cls-1" d="M304.66,114.23a53.53,53.53,0,0,1-3.89,10.89,96,96,0,0,1-11.86,18.81,63.32,63.32,0,0,1-7.94,8.23l-.56-1.14c.59.31,1.18.63,1.77,1-.66.2-1.32.36-2,.51l-.81.18.25-1.32a49.84,49.84,0,0,1,3.55-11,69.82,69.82,0,0,1,5.49-9.87,68.54,68.54,0,0,1,7-8.87A43.73,43.73,0,0,1,304.66,114.23Z"/><path class="cls-1" d="M230.5,104a37.76,37.76,0,0,1,4.9,3.68,53.28,53.28,0,0,1,4.32,4.17,69.94,69.94,0,0,1,7.36,9.32l1.6,2.5,1.52,2.59a19.35,19.35,0,0,1,1.48,3.33,14.2,14.2,0,0,1,.57,3.89,37,37,0,0,1-.75,6.06,9.55,9.55,0,0,0,0,4.55l-2.4-.42A15.55,15.55,0,0,0,254,141a10.27,10.27,0,0,1-2.86,5.56l-.92,1-1.48-1.37a9,9,0,0,1-2.12-3.1,13.87,13.87,0,0,1-.91-3.43c-.34-2.2-.36-4.13-.66-5.62a7.43,7.43,0,0,0-.56-1.84,15.3,15.3,0,0,0-1.09-1.91l-1.51-2.41-1.48-2.47c-2-3.31-3.8-6.7-5.48-10.22A70.44,70.44,0,0,1,230.5,104Z"/><path class="cls-1" d="M251.92,114.24a18.83,18.83,0,0,1,6.38,6.12,25.56,25.56,0,0,1,3.45,7.86,25.18,25.18,0,0,1,.67,8.57,18.17,18.17,0,0,1-2.81,8.39,43.81,43.81,0,0,1-3.44-7.71c-.88-2.46-1.57-4.87-2.18-7.31s-1.12-4.89-1.51-7.48A43,43,0,0,1,251.92,114.24Z"/><path class="cls-1" d="M272.48,124.14a15,15,0,0,1,3.38,5.67,18.45,18.45,0,0,1,1,5.83,18.21,18.21,0,0,1-.87,5.85,14.75,14.75,0,0,1-3.29,5.72,16.57,16.57,0,0,1-3-5.81A20.8,20.8,0,0,1,269.6,130,16.88,16.88,0,0,1,272.48,124.14Z"/><path class="cls-1" d="M212,123.46a7.81,7.81,0,0,0-3.18,2.54c-.76,1-1.42,2-2.11,3.08a77.74,77.74,0,0,1-4.82,6.51c-1.69,2.07-3.46,4.06-5.41,6a45.42,45.42,0,0,1-6.75,5.73,20.29,20.29,0,0,1,1.44-9.11,28.29,28.29,0,0,1,4.53-7.71,29.21,29.21,0,0,1,6.67-6,13.75,13.75,0,0,1,4.63-2A5.94,5.94,0,0,1,212,123.46Z"/><path class="cls-1" d="M155,147.3a65.12,65.12,0,0,1-.4-10.09c.09-3.18.24-6.28.49-9.36s.56-6.16,1-9.32c.12-.79.22-1.58.35-2.39s.29-1.48.37-2.2a5.17,5.17,0,0,0-.86-4.26,3.93,3.93,0,0,1,2.78.93,7.68,7.68,0,0,1,1.91,2.43,15.91,15.91,0,0,1,1,2.65,24.55,24.55,0,0,1,.69,2.51,33.54,33.54,0,0,1,.72,10.28,34.72,34.72,0,0,1-2.34,10A25,25,0,0,1,155,147.3Z"/><path class="cls-1" d="M181.71,106.62a11.88,11.88,0,0,0-1.38,5.54c-.07,1.83,0,3.75-.14,5.91a18.91,18.91,0,0,1-.57,3.39,23.53,23.53,0,0,1-1.08,3.23,47.38,47.38,0,0,1-2.88,5.61c-1,1.71-2,3.27-2.94,4.9s-1.89,3.26-2.85,4.93c-1.93,3.33-3.74,6.78-6,10.45A28.27,28.27,0,0,1,164,137.9a37,37,0,0,1,1.94-6.07c.4-1,.88-1.93,1.34-2.89s1-1.84,1.51-2.71c1-1.72,2.06-3.32,3-4.86.46-.76.86-1.53,1.26-2.28a24.17,24.17,0,0,0,1.07-2.38,40.23,40.23,0,0,1,2.54-5.76A8.74,8.74,0,0,1,181.71,106.62Z"/><path class="cls-1" d="M187.19,118.05a13.83,13.83,0,0,1,1.67,10.33,36.7,36.7,0,0,1-3.64,9.05c-1.33,2.6-2.71,5.17-4.2,7.8a72.29,72.29,0,0,1-5.2,8.11,21.57,21.57,0,0,1-.77-10.08,30.15,30.15,0,0,1,3.06-9.49,79,79,0,0,1,4.89-7.63A47.29,47.29,0,0,0,187.19,118.05Z"/><path class="cls-1" d="M110.31,110.15a21.37,21.37,0,0,1,10.16,4.79,27.58,27.58,0,0,1,7.08,8.88,26.67,26.67,0,0,1,2.88,11.06,19.28,19.28,0,0,1-2.74,11c-1.25-3.65-2.25-6.8-3.45-9.81s-2.44-5.83-3.83-8.62-2.93-5.53-4.62-8.32S112.24,113.49,110.31,110.15Z"/><path class="cls-1" d="M139.15,100.46c1.51,1.84,3.13,3.21,4.65,5.13a20.6,20.6,0,0,1,3.36,6.64,36.66,36.66,0,0,1,1.36,7c.23,2.3.35,4.48.43,6.74a61.42,61.42,0,0,1-1,13.66,32,32,0,0,1-5.38,12.9c-.38-4.74-.58-9-.89-13.35s-.58-8.61-.69-13l0-3.31c0-1.12,0-2.22,0-3.29.05-2.16.11-4.22,0-6.24a31.76,31.76,0,0,0-.69-6C139.86,105.26,139,102.87,139.15,100.46Z"/><path class="cls-1" d="M81.85,112a24.57,24.57,0,0,1,3.1,9.42,34.65,34.65,0,0,1-.13,9.65,32.94,32.94,0,0,1-1.08,4.72,40.13,40.13,0,0,1-1.62,4.36c-.58,1.35-1.15,2.63-1.66,4a18.46,18.46,0,0,0-1.11,4.52,8.66,8.66,0,0,1-2.82-4.52,18.48,18.48,0,0,1-.58-5.21c0-1.68.22-3.23.37-4.69s.37-2.92.59-4.38c.46-2.91,1-5.81,1.78-8.75A48.1,48.1,0,0,1,81.85,112Z"/><path class="cls-1" d="M101.34,126.88a14.18,14.18,0,0,1,3.13,5.25,16.07,16.07,0,0,1,.87,5.26,15.78,15.78,0,0,1-.86,5.25,14,14,0,0,1-3.14,5.25,14,14,0,0,1-3.15-5.25,16,16,0,0,1-.85-5.25,16.32,16.32,0,0,1,.86-5.26A14.08,14.08,0,0,1,101.34,126.88Z"/><path class="cls-1" d="M69.07,98.09a19.73,19.73,0,0,1-.61,7.53,55.79,55.79,0,0,1-2.39,7c-.89,2.2-1.75,4.25-2.55,6.37s-1.6,4.19-2.29,6.31c-1.45,4.24-2.72,8.52-3.87,12.93-.58,2.21-1.12,4.45-1.67,6.74l-.82,3.48-.22.89a1.33,1.33,0,0,0-.1.62c.05.45.17,1.09.84,1a.7.7,0,0,1-.41.31,1.09,1.09,0,0,1-.59-.05,2.36,2.36,0,0,1-.92-.67,2.58,2.58,0,0,1-.55-1.08l-.28-.89c-.37-1.2-.63-2.41-.88-3.63a42.19,42.19,0,0,1-.65-7.45,46.93,46.93,0,0,1,2.55-14.74,48.23,48.23,0,0,1,6.94-13.15C63.48,105.61,66.45,102.35,69.07,98.09Z"/><path class="cls-1" d="M109.13,127.55a12,12,0,0,1,3.13,4.58,12.4,12.4,0,0,1,.87,4.58,12.13,12.13,0,0,1-.86,4.57,11.85,11.85,0,0,1-3.14,4.58,12,12,0,0,1-3.15-4.58,12.6,12.6,0,0,1,0-9.15A12,12,0,0,1,109.13,127.55Z"/><path class="cls-1" d="M38.74,123.49a25.42,25.42,0,0,1,2.34,7c.43,2.16.72,4.14,1,6s.52,3.66.83,5.6.73,4,1.4,6.71a10,10,0,0,1-7-3.86,14.64,14.64,0,0,1-3.14-7.36,17.07,17.07,0,0,1,.68-7.56A16.58,16.58,0,0,1,38.74,123.49Z"/><path class="cls-1" d="M22.46,103.25a56.2,56.2,0,0,1,1.09,11c0,3.55-.11,7-.41,10.51a104.2,104.2,0,0,1-1.42,10.42,55.47,55.47,0,0,1-3,10.66,33.26,33.26,0,0,1-3.28-10.79,48.13,48.13,0,0,1-.26-11,48.67,48.67,0,0,1,2.19-10.78A33.37,33.37,0,0,1,22.46,103.25Z"/><path class="cls-1" d="M2.42,126.88a17.53,17.53,0,0,1,2.76,5.3,22.81,22.81,0,0,1,1.1,5.23,25.41,25.41,0,0,1-.08,5.23,21.65,21.65,0,0,1-1.33,5.28L2.21,145.8a18.13,18.13,0,0,1,2,.59,15.08,15.08,0,0,1,2.08.94A15.49,15.49,0,0,1,4.7,149c-.55.46-1.1.89-1.66,1.27l-1.24.83L.37,148.11a20,20,0,0,1-1.68-5.28,22.79,22.79,0,0,1-.26-5.34,20.68,20.68,0,0,1,1.08-5.35A16.26,16.26,0,0,1,2.42,126.88Z"/></g><g id="圖層_2" data-name="圖層 2"><path class="cls-1" d="M503.75,69l-1.7,7.63L502.9,79,500,88.79V100l-1.36,10.54,1.36,6.92v22.2l-3,2.88-6.1-1.69v-3.9l2.37-6.78,1-18.14-2.54-11.35-4.07-10.34-2.54,4.57,1.7,5.43.17,5.42,3.56,13.05L488,124.68l.17,5-3.9,8.3-7.62,4.58-3.39-.68-2.88-2.37v-2l5.25-2.21,6.95-11.52v-5.94l-5.93-13.09-2.88-9.62L470.36,80l-4.92,3.56-3.73,1.18-3.22-2.37L454.76,80l2.54,13.73-1.18,9.49,1.35,11.69,1.53,9-1.86,3.56-3.23,1.35-5.25-.34-.85-3.77,2.38-3.35,1-21.69-2.54-14.2V80l-4.91-11V54.72l1.69-12s2.71-4.58,3.39-4.75,6.78-7.12,6.78-7.12l6.1-2.88V25.57c0-.51,1.7-1.19,1.7-1.19h4.4A40,40,0,0,1,473.75,23h6.95l5.76,3L487,29.3l-.68,3.05,2.2,2.71-.17,3.22-3.9,5.09-5.59-.85-3.9,2.54,10.85.85,5.42.17,13.22,9.15,8.65,14.07,11.19,18.3,7.28,8.82,10.51,4.74,12.21,5.6,4.23,1.86,1.7,3.56v3.39l-6.27-.51-9.32-5.25-12.55-3.73-8-7.12-8.65-9.66-7.79-10.68-3.73-10.45Z"/><path class="cls-1" d="M503.14,68.79l-.82,3.7a26.26,26.26,0,0,0-.86,3.89,3.39,3.39,0,0,0,.33,1.34,6.64,6.64,0,0,0,.4,1.11c.27.42.11-.1.07.08-.27,1.22-.71,2.42-1.06,3.62-.69,2.35-1.81,4.83-1.81,7.29V98a52.6,52.6,0,0,1-.61,6.72c-.29,2.23-1,4.65-.54,6.88l1,4.93c.05.25.11.51.15.77,0,.08.06.44,0,.1a5.61,5.61,0,0,1,0,.58v19.44a9.34,9.34,0,0,0,0,2.18c-1.08-.65.59-.45.07-.34-.12,0-.34.33-.43.41l-1,.93-1.53,1.44.61-.16-6.1-1.7.46.61v-2.78a8.08,8.08,0,0,1,0-1.1c-.05.33.15-.35.18-.45.69-1.95,1.48-3.9,2.07-5.89a12.27,12.27,0,0,0,.25-2.71l.39-7,.38-6.77a11.41,11.41,0,0,0,0-2.61c-.37-2-.88-3.93-1.32-5.89-.38-1.7-.65-3.49-1.16-5.16s-1.27-3.26-1.9-4.85l-2.17-5.52A.64.64,0,0,0,487.1,90l-1.84,3.33c-.44.78-.89,1.28-.63,2.15.41,1.38.86,2.74,1.29,4.11.07.23.15.46.21.7s0,.08,0,.08a15.64,15.64,0,0,1,.06,1.81c0,1.17,0,2.4.11,3.56a16.28,16.28,0,0,0,.51,1.94l2.44,9c.08.29.35,2.17.63,2.29-.36-.16.25-.63,0-.28a3.42,3.42,0,0,0-.27.62l-.92,2.15a17.93,17.93,0,0,0-1.34,3.09,16.28,16.28,0,0,0,.1,3.62c0,.5,0,1,0,1.49,0-.37.15-.34,0-.11a4.41,4.41,0,0,0-.28.58l-1.9,4a19,19,0,0,0-1.55,3.3c0,.2-.26.29.13,0a1.65,1.65,0,0,1-.25.15,13.11,13.11,0,0,0-1.44.87l-4.49,2.69c-.15.09-1.35.64-1.37.82,0,0,.54.14.23-.06a4.35,4.35,0,0,0-1.15-.23c-.67-.13-1.37-.22-2-.41.49.14,0-.05-.24-.24l-1.05-.86-.92-.77c-.56-.45-.18-.32-.24.07a12.14,12.14,0,0,0,0-2l-.46.6,3.19-1.34a7.05,7.05,0,0,0,2.44-1.16,12.79,12.79,0,0,0,1.16-1.91l2.25-3.74,2.33-3.86a13.48,13.48,0,0,0,1.2-2,8.34,8.34,0,0,0,.09-2.69,22.27,22.27,0,0,0,0-3.56,6.3,6.3,0,0,0-.61-1.5l-1.68-3.7L477.47,105c-.09-.21-.2-.42-.28-.63.08.2,0-.16-.1-.35-.34-1.22-.72-2.44-1.09-3.65-.56-1.88-1.21-3.76-1.69-5.67-1.24-4.94-2.23-10-3.35-14.93a.62.62,0,0,0-.92-.37l-4.18,3a2.77,2.77,0,0,1-1.17.65,16.89,16.89,0,0,0-2.8.89,2.17,2.17,0,0,0-.33.1c.44.13.58.14.41,0l-.07,0c-.09-.24-.79-.58-1-.74-.69-.51-1.36-1-2.07-1.53-1.22-.84-2.5-1.59-3.74-2.38a.63.63,0,0,0-.92.7l2.27,12.27c.06.34.13.68.19,1,0,.12.05.63.06.28a18.29,18.29,0,0,1-.26,2.07c-.29,2.34-.66,4.69-.88,7a19.31,19.31,0,0,0,.37,3.93l.85,7.39c.15,1.29.39,2.57.61,3.85l.68,4,.24,1.4c0,.23,0,.85.13.41s-.09,0-.15.12c-.18.28-.31.59-.47.88-.32.62-.7,1.23-1,1.87-.06.14-.18.28-.23.42.1-.33.53-.31-.09-.07s-1.29.54-1.93.81a4.93,4.93,0,0,1-.75.31c-.14,0,.22,0-.09,0A16.57,16.57,0,0,1,452,128l-3.36-.21.6.46-.62-2.8a5.47,5.47,0,0,0-.16-.7c-.22-.57.24.2-.12.19.13,0,.61-.86.69-1,.81-1.13,1.73-2,1.8-3.41l.62-13.41.29-6.18a8.58,8.58,0,0,0-.07-2.15L449.4,86c0-.22-.1-.43-.12-.65,0-.07,0-.21,0,.06a2.54,2.54,0,0,1,0-.39c0-1.17,0-2.35,0-3.52a6.28,6.28,0,0,0-.11-1.89,15.56,15.56,0,0,0-.77-1.72L445.36,71c-.33-.71-.59-1.5-1-2.18-.19-.33,0-.08,0,.06,0-.2,0-.4,0-.6v-13c0-.19,0-.39,0-.59,0,0,0,.15,0-.11.1-.84.23-1.67.35-2.5l1-7.38A14.67,14.67,0,0,1,446,42.9c-.06.19.08-.14.19-.32l1-1.56a10.32,10.32,0,0,1,2-2.55,17,17,0,0,0,1.72-1.57c1.65-1.7,3.23-3.47,4.8-5.25.06-.06.4-.42.28-.34s.54-.23.69-.3L460,29.46l2.07-1a.62.62,0,0,0,.31-.54c0-.82-.31-2.08.42-2.55a4,4,0,0,1,.65-.33c.29-.12,0,0,.07,0a6.37,6.37,0,0,1,1.07,0,14.66,14.66,0,0,0,4-.2,21.81,21.81,0,0,1,5.91-1.16,52.92,52.92,0,0,0,6,0c.35,0-.29-.18,0,0a8.14,8.14,0,0,0,.77.41l2.62,1.39a7.71,7.71,0,0,0,2.08,1.1s.11.09.15.08c-.32.08-.17-.65-.23-.1a5.58,5.58,0,0,0,.21,1.34c.07.43.11.86.2,1.28s.15-.19,0,.35a13,13,0,0,0-.58,2.61c-.06.59.28.87.64,1.32l1,1.21c.12.14.5.8.68.84-.22,0,0-.61-.16-.13a3.39,3.39,0,0,0,0,.64l-.09,1.62c0,.18,0,.36,0,.55s.15-.26,0-.11-.36.46-.54.69l-3.32,4.33.71-.29a47.84,47.84,0,0,0-5.56-.84c-.72,0-1.36.61-1.95,1l-2.46,1.61a.63.63,0,0,0,.31,1.17c3.69.28,7.38.68,11.07.85,1.23.06,2.46.08,3.69.12l1.39,0c.27,0-.14-.05-.17-.07l.18.12a11.31,11.31,0,0,0,1.9,1.32l3.19,2.21,6.47,4.48c.48.33,1,.64,1.42,1-.12-.08-.2-.32-.06,0a5.46,5.46,0,0,0,.47.77L512,68.81l4.92,8c2.23,3.65,4.28,7.5,6.72,11,.92,1.31,2.05,2.5,3.07,3.73l2.74,3.31A16.17,16.17,0,0,0,531,96.77a4.09,4.09,0,0,0,1.09.59l3.24,1.47,6.22,2.8c3.72,1.69,7.42,3.4,11.12,5.1,1.48.67,3,1.32,4.45,2a9.07,9.07,0,0,1,1,.44c-.36-.22-.15-.19,0,.12a7.18,7.18,0,0,0,.38.79l.89,1.88c.08.16.17.32.24.49,0-.12,0-.35-.06.07a28.58,28.58,0,0,0,0,3.07l.63-.62-4.11-.34a18.68,18.68,0,0,0-2-.16c-.41,0,.18.1.07,0l-.43-.24-8.25-4.65c-1.78-1-4-1.36-5.94-1.94l-5-1.48-1.72-.51c-.31-.09-.86-.41-.41,0-2.3-1.82-4.41-3.94-6.59-5.9a52,52,0,0,1-4-4.21c-2-2.19-4-4.34-5.88-6.58-.15-.18.1.13,0,0a2.48,2.48,0,0,1-.19-.26c-.33-.45-.66-.91-1-1.36l-3.11-4.27-3.06-4.19c-.11-.16-.48-.7-.36-.45a11.63,11.63,0,0,1-.46-1.29L504.52,68c-.19-.54-1.07-.65-1.21,0l-.17.79c-.16.79,1,1.12,1.21.34l.17-.8h-1.21l2.93,8.22a16.92,16.92,0,0,0,.88,2.41,23.61,23.61,0,0,0,1.79,2.45c1.93,2.64,3.84,5.28,5.77,7.91,1.28,1.73,2.88,3.28,4.31,4.88,1.59,1.78,3.11,3.73,4.85,5.37,2.24,2.14,4.63,4.14,6.94,6.21a4,4,0,0,0,1.56,1c1.34.42,2.7.8,4,1.2,2.64.79,5.48,1.37,8,2.39-.32-.13.09.07.16.11l.67.37,2.31,1.31,5.07,2.86a5.42,5.42,0,0,0,2.66.74l4.9.4a.63.63,0,0,0,.62-.63,31.05,31.05,0,0,0,0-3.2,7.64,7.64,0,0,0-1-2.39c-.34-.72-.56-1.6-1.26-2a33.14,33.14,0,0,0-3.5-1.54c-3.82-1.68-7.59-3.47-11.39-5.21-3.47-1.59-6.95-3.15-10.42-4.72-.36-.16-.7-.34-1.06-.48s-.34-.17-.25-.1a15.62,15.62,0,0,1-1.51-1.83L525.38,88c-.19-.23-.39-.45-.57-.69s.07.12-.07-.1c-.31-.47-.59-1-.88-1.44L520,79.41,513.61,69c-2.27-3.71-4.56-7.41-6.83-11.11a13.78,13.78,0,0,0-2.11-3.22,51.36,51.36,0,0,0-4.62-3.21l-6.73-4.65a13.22,13.22,0,0,0-1.7-1.18,4.43,4.43,0,0,0-1.82-.2c-4.34-.14-8.65-.49-13-.83l-1.89-.14.32,1.16,2.16-1.41a14.84,14.84,0,0,0,1.41-.92c.07-.06.26-.12.31-.2-.33.56-.62-.11-.3.08a4.43,4.43,0,0,0,1.21.18l1.79.27,2.43.37a.65.65,0,0,0,.7-.29l2.18-2.83c.58-.77,1.6-1.67,1.81-2.63a13.67,13.67,0,0,0,.11-2,3.07,3.07,0,0,0-.08-1.51,16.84,16.84,0,0,0-2.25-2.77l.16.6a17.22,17.22,0,0,0,.7-3.21,9,9,0,0,0-.24-1.54,7.52,7.52,0,0,0-.29-1.83c-.32-.73-1.65-1.12-2.31-1.47-1.18-.62-2.35-1.36-3.58-1.89a6.81,6.81,0,0,0-2.63-.17c-1.6,0-3.2-.07-4.79,0a21.85,21.85,0,0,0-4.79,1,7.33,7.33,0,0,1-2.74.35c-1.21,0-2.53-.23-3.64.31-.67.33-1.36.71-1.49,1.5a14.43,14.43,0,0,0,0,2.37l.31-.54L455.9,30c-1.27.6-2.09,1.92-3,3a33.57,33.57,0,0,1-4.43,4.48,8.76,8.76,0,0,0-2,2.41,15.13,15.13,0,0,0-1.59,2.53,6.55,6.55,0,0,0-.25,1.47l-.47,3.35-1,6.81a22,22,0,0,0-.1,3v7.7a19,19,0,0,0,.05,4.46,32.68,32.68,0,0,0,2,4.57c.91,2,1.77,4.09,2.73,6.11.05.11.19.59.14.26s0,0,0,.06a3.31,3.31,0,0,0,0,.77v3.66a20.2,20.2,0,0,0,.49,3.62l1.35,7.54.53,3c0,.28.11.55.15.83s0,.24,0,.09c0,1.29-.13,2.6-.19,3.89l-.69,14.88-.11,2.2c0,.19,0,.38,0,.56s.21-.26,0,0a18.49,18.49,0,0,0-2,2.79c-.48.68-.32,1.09-.14,1.88l.63,2.8a.63.63,0,0,0,.6.46l3,.19a9.32,9.32,0,0,0,2.47.1,12.51,12.51,0,0,0,3.09-1.3c.7-.38,1-1.3,1.33-2a5.83,5.83,0,0,0,1.05-2.38,17.36,17.36,0,0,0-.4-2.36c-.37-2.19-.78-4.38-1.12-6.58,0,.28,0,0,0-.19,0-.39-.09-.79-.14-1.19l-.43-3.72c-.24-2.09-.71-4.27-.74-6.38A40,40,0,0,1,457.4,98a18.39,18.39,0,0,0,.46-4.66c-.65-4.51-1.66-9-2.49-13.49l-.92.71c1.26.8,2.56,1.56,3.78,2.41.81.57,1.59,1.17,2.39,1.76.53.39.8.71,1.48.57a11.87,11.87,0,0,0,4.18-1.56l4.39-3.18-.92-.38L472.86,94c.31,1.36.71,2.67,1.11,4,.68,2.27,1.23,4.64,2,6.86.64,1.72,1.52,3.37,2.27,5l3.37,7.44c.11.24.23.47.32.71s0-.38-.05-.18v4.76c0,.36,0,.74,0,1.1.05-.52,0-.11-.2.19L480,126.77c-1.54,2.55-3.37,5.08-4.68,7.75,0,.07-.2.25-.19.32s.37-.15.24-.18c-.33-.06-1.26.53-1.55.66l-3.62,1.51a.66.66,0,0,0-.46.61c0,1-.28,2.06.53,2.76a12.91,12.91,0,0,0,2.83,2.25,11.25,11.25,0,0,0,1.92.38,6,6,0,0,0,1.62.32,7.82,7.82,0,0,0,2.48-1.39l4.19-2.51a4.16,4.16,0,0,0,1.58-1.18,36.51,36.51,0,0,0,1.66-3.52l1.88-4a4,4,0,0,0,.31-2.18l-.08-2.49a6.42,6.42,0,0,0,0-.88c-.06-.32,0-.32-.08,0a35.2,35.2,0,0,1,1.59-3.68c.32-.75,1.06-1.83,1-2.67a14.69,14.69,0,0,0-.67-2.48l-1.3-4.74L488,107c-.11-.4-.23-.8-.33-1.21s0,.08-.05-.41c0-1.61,0-3.26-.15-4.86a16.86,16.86,0,0,0-.95-3.33A12.27,12.27,0,0,0,485.8,95c-.34-.61.27.17-.13.13a5.3,5.3,0,0,0,.37-.67l2.14-3.86L487,90.48c1.32,3.36,2.8,6.7,4,10.11a32.89,32.89,0,0,1,.81,3.43l1.52,6.82c.07.32.14.65.22,1,0,.12.07.55.06.21,0,.37,0,.75-.06,1.11l-.34,6.09-.41,7.26a29.72,29.72,0,0,1-.21,3.66c.07-.36-.19.47-.23.58l-.53,1.52-1.3,3.71c-.55,1.55-.31,3.25-.31,4.88a.63.63,0,0,0,.46.6l4.45,1.23a8.71,8.71,0,0,0,1.64.46c.59,0,.91-.43,1.31-.81l1.95-1.84a1.44,1.44,0,0,0,.59-.86,13.59,13.59,0,0,0,0-2.47V126.07c0-2.79.13-5.62,0-8.41-.11-2.44-1.25-4.82-1.37-7.26,0,.29.09-.41.11-.57l.31-2.41.74-5.79a62,62,0,0,0,.21-7.83V90.28a6.91,6.91,0,0,1,.4-2.77l1.82-6.18c.36-1.24.81-2.07.37-3.29a7.52,7.52,0,0,0-.5-1.4c-.19-.32-.17.3,0-.13a23.53,23.53,0,0,0,.55-2.49l1.09-4.89C504.52,68.34,503.32,68,503.14,68.79Z"/></g></svg>