<svg xmlns="http://www.w3.org/2000/svg" viewBox="0 0 504.65 455.39"><defs><style>.cls-1{fill:#917b53;}</style></defs><g id="圖層_2" data-name="圖層 2"><path class="cls-1" d="M11.43,187.78l65.38,5.07h75.53s33-.63,47.61,3.81,59.66,49.51,59.66,49.51,12.06-8.25,20.31-4.44,11.43,4.44,11.43,4.44,36.18-20.95,83.15-22.85,69.18,22.22,84.42,22.85A67.45,67.45,0,0,0,485,242.36l-7.66,7.38-45.7-4.2-52.05-11.91s-22.21-2.38-34.27,0-40.62,16.11-40.62,16.11a18,18,0,0,1,10.15,11l2.54,8.25,7.83,7.83.85,8-13.12-7.62L305.31,276S289,286.79,281.4,289.12s-29.62,4.87-43.16,1.27-14.39-1.69-22-4.87-12.91-2.11-20.53-4.65a22.63,22.63,0,0,0-14.38.21l-12.91-7.83,37-1.27,17.13-11-20.52-11.24L153,203.22,48.24,194.76Z"/></g></svg>