<svg xmlns="http://www.w3.org/2000/svg" viewBox="0 0 384.79 387.75"><defs><style>.cls-1{fill:#917b53;}</style></defs><g id="圖層_2" data-name="圖層 2"><path class="cls-1" d="M200,149.4l-5.36,24.12,2.68,7.51-9.12,31.09V247.5l-4.28,33.35,4.28,21.86v70.22l-9.64,9.12-19.3-5.36V364.36l7.5-21.45L170,285.56l-8-35.92-12.87-32.7-8,14.47,5.36,17.16.54,17.15L158.19,307l-8,18.61.53,15.7-12.33,26.26-24.12,14.48-10.72-2.15-9.11-7.5V366L111,359l22-36.46V303.78l-18.76-41.43L105.12,232,94.4,184.24,78.85,195.5l-11.79,3.75-10.19-7.5-11.79-7.51,8,43.42-3.75,30,4.29,37,4.82,28.41-5.9,11.26L42.4,338.63l-16.62-1.08L23.1,325.61,30.61,315l3.21-68.62-8-44.91V184.24L10.24,149.4v-45L15.6,66.31s8.57-14.47,10.72-15S47.76,28.79,47.76,28.79l19.3-9.12v-7.5c0-1.61,5.36-3.75,5.36-3.75H86.35s14.48-4.29,18.77-4.29h22l18.23,9.65L146.93,24l-2.15,9.65,7,8.58-.53,10.18L138.89,68.45,121.2,65.77l-12.33,8,34.31,2.68,17.15.54,41.81,29,27.34,44.49,35.38,57.89,23.05,27.88,33.24,15,38.59,17.69,13.4,5.89,5.36,11.26v10.72l-19.83-1.61-29.48-16.61-39.67-11.8-25.2-22.51L237,213.72,212.33,180l-11.8-33.06Z"/></g></svg>