<svg xmlns="http://www.w3.org/2000/svg" viewBox="0 0 406.32 209.12"><defs><style>.cls-1{fill:#917b53;}</style></defs><g id="圖層_2" data-name="圖層 2"><path class="cls-1" d="M399.35,203.2,392,187l-13.23-11H364.06s-17.64-10.3-14-10.3,11-52.3,11-52.3L336.86,64.24,290.54,21.6,244.22,6.32l-44.11,8L164.82,28.22,132.47,51l-8.09-16.17L111.88,26l-7.35,8.09L95,26.75,83.21,14.34V34.1l7.35,23.66L67,70.86,53.8,82.62,36.89,100.21,20.71,119.39,5.27,130.31,14.83,140a96.61,96.61,0,0,0,14,1.47l69.11-18.38L106,141.44l16.91,10.3,12.5,7.35,1.47,18.38-10.29,8.82-3,5.15-4.41,6.61,8.09-.73,6.62,2.2,8.08-5.88,11.77,3.68L156.73,187l8.09-9.56,2.94,5.14,3.67-8.08L197.9,171l-28.67,19,10.29.73,8.62,2.21v5.14l14.17-.73L210.4,190l5.88,4.41,14-17.65,9.56,1.47,11-7.22s17.64,2.08,16.17,4.28-14.7,8.82-14.7,8.82l-11,2.95-8.82,5.88,9.55,2.2,14,1.47,11.77-3.67v6.61l14-9.55-1.47,7.35,19.11-13.24,9.56,4.42,7.35.73,8.82-3.67,13.24,8.82,16.91,8.82h44.11Z"/></g></svg>