<svg xmlns="http://www.w3.org/2000/svg" viewBox="0 0 637.32 148.71"><defs><style>.cls-1{fill:#231815;}.cls-2{fill:#f8f8fc;}</style></defs><g id="圖層_1" data-name="圖層 1"><path class="cls-1" d="M385.26,155.43c-.35-2.1-.57-4.18-.86-6.25l-.83-6.17c-.56-4.08-1.22-8.1-2-12-1.63-7.86-3.92-15.44-7.61-22.19a51.11,51.11,0,0,0-6.45-9.5,102.89,102.89,0,0,0-8.35-8.59,57,57,0,0,1-8.46-9.79A30.63,30.63,0,0,1,349.07,78c-.45-1-.85-1.82-1.34-2.67A7.87,7.87,0,0,0,346,73.1a3.45,3.45,0,0,0-2.72-.85,3.87,3.87,0,0,1,3.29-.22,9.33,9.33,0,0,1,2.9,1.85,24.11,24.11,0,0,1,2.27,2.4c.65.74,1.33,1.46,2,2.13a87.84,87.84,0,0,0,9.46,7.46c1.67,1.22,3.37,2.47,5,3.83a45.4,45.4,0,0,1,4.87,4.47,53.11,53.11,0,0,1,4.34,5.12l1.85,2.79c.64.92,1.12,1.93,1.68,2.89a60.41,60.41,0,0,1,6.79,25.19A82.94,82.94,0,0,1,385.26,155.43Z"/><path class="cls-1" d="M603,152.12a11.64,11.64,0,0,1-2.82-4.12,35.43,35.43,0,0,1-1.56-4.7c-.84-3.08-1.56-6.17-2.21-9.26-.32-1.55-.63-3.1-.91-4.66a35,35,0,0,1-.64-5.12,15.53,15.53,0,0,1,.94-6.05,23.45,23.45,0,0,1,2.76-5c1-1.4,2-2.6,3-3.87s2.06-2.47,3.15-3.67c2.16-2.38,4.41-4.68,6.79-6.84a74,74,0,0,1,15.72-11.21c-3.55,5.47-7.35,10.45-11.07,15.45L605,117.9a16.32,16.32,0,0,0-1.93,3.21,8.62,8.62,0,0,0-.71,3.19c-.09,1.26,0,2.71.06,4.3s.12,3.16.15,4.74c0,3.17,0,6.34-.13,9.52S602,149,603,152.12Z"/><path class="cls-1" d="M611.87,156.92a.81.81,0,0,0,.88-.56.42.42,0,0,0,0-.38c-.07,0-.1-.19-.18-.29a4.33,4.33,0,0,1-.48-1.2,5,5,0,0,1,0-2,10.49,10.49,0,0,1,1.33-3.08c.48-.82.93-1.53,1.42-2.27a49.84,49.84,0,0,1,6.73-8,49.13,49.13,0,0,1,8.23-6.46,33.45,33.45,0,0,1,9.92-4.3,45.08,45.08,0,0,1-5.75,9,78.85,78.85,0,0,1-6.84,7.5,80.42,80.42,0,0,1-7.74,6.58c-.68.5-1.41,1-2.09,1.48s-1.22.78-1.61,1.09a2.25,2.25,0,0,0-.52.5,13.71,13.71,0,0,0-.42,1.37,2.74,2.74,0,0,1-.52.93,1.83,1.83,0,0,1-.86.55C612.83,157.53,612.09,157.41,611.87,156.92Z"/><path class="cls-1" d="M384.36,62.56a79.12,79.12,0,0,1,10.54,20.9,98.66,98.66,0,0,1,4.76,23,142.63,142.63,0,0,1,0,23.29,183.93,183.93,0,0,1-3.14,23,162.2,162.2,0,0,1-3.15-22.95c-.61-7.62-1.05-15.15-1.71-22.6S390.12,92.42,388.82,85,385.92,70.23,384.36,62.56Z"/><path class="cls-1" d="M340.49,95c2.06,2.5,4.08,4.87,6.15,7.2s4.18,4.62,6.25,7,4.1,4.82,6,7.43c.48.65,1,1.33,1.42,2s.89,1.37,1.33,2.06c.87,1.38,1.72,2.78,2.47,4.23a88.26,88.26,0,0,1,7.19,17.94,114.23,114.23,0,0,1,3.63,18.74l-.92-.77a1.41,1.41,0,0,0,1.52-.26,1.71,1.71,0,0,0,.59-.82,1.4,1.4,0,0,0-.11-1.12,1.61,1.61,0,0,1,.73,1.15,2.68,2.68,0,0,1-.23,1.49,3.21,3.21,0,0,1-1,1.22,3,3,0,0,1-1.72.53h-.52l-.41-.78c-3-5.65-5.48-11.41-8-17.06s-5-11.2-7.75-16.56c-1.4-2.67-2.81-5.31-4.36-7.91l-4.76-8C344.85,107.25,341.71,101.39,340.49,95Z"/><path class="cls-1" d="M281.58,116.35c1.72,1.2,3.27,2.29,4.84,3.46a41.87,41.87,0,0,1,4.48,3.89,44.52,44.52,0,0,1,11.53,20.59,31.31,31.31,0,0,1,.67,12,93,93,0,0,1-6.5-9.67c-1.93-3.19-3.76-6.34-5.53-9.53s-3.53-6.39-5.23-9.72c-.84-1.67-1.68-3.34-2.5-5.17A20.35,20.35,0,0,1,281.58,116.35Z"/><path class="cls-1" d="M313.9,118.47a57.43,57.43,0,0,1-4.14,11.26,99.56,99.56,0,0,1-5.64,10.12,102.52,102.52,0,0,1-6.7,9.42,67.37,67.37,0,0,1-8.17,8.61l-.56-1.14c.62.32,1.23.65,1.84,1-.68.19-1.36.35-2,.49l-.82.17.26-1.31a53.1,53.1,0,0,1,3.78-11.35,72.7,72.7,0,0,1,5.73-10.24,71.54,71.54,0,0,1,7.26-9.25A47.2,47.2,0,0,1,313.9,118.47Z"/><path class="cls-1" d="M236.81,107.83a41.48,41.48,0,0,1,5,3.87,59.14,59.14,0,0,1,4.46,4.35,75.46,75.46,0,0,1,7.61,9.71l1.66,2.6,1.57,2.69a20.14,20.14,0,0,1,1.54,3.43,15,15,0,0,1,.59,4,41.29,41.29,0,0,1-.75,6.29,9.68,9.68,0,0,0,.1,4.77l-2.4-.42a16.18,16.18,0,0,0,5-2.81,10.64,10.64,0,0,1-3,5.72l-.93,1-1.46-1.37a9.54,9.54,0,0,1-2.17-3.21,14.86,14.86,0,0,1-.93-3.54c-.34-2.28-.34-4.29-.66-5.86a7.15,7.15,0,0,0-.58-1.95,14.67,14.67,0,0,0-1.13-2l-1.57-2.51L247.21,130c-2-3.44-4-7-5.73-10.6A76.63,76.63,0,0,1,236.81,107.83Z"/><path class="cls-1" d="M259.08,118.48a19.76,19.76,0,0,1,6.51,6.41,26.82,26.82,0,0,1,3.55,8.16,26.52,26.52,0,0,1,.73,8.88,19.25,19.25,0,0,1-2.8,8.72,49.14,49.14,0,0,1-3.45-8c-.89-2.57-1.6-5.08-2.24-7.62s-1.17-5.1-1.61-7.79A47.2,47.2,0,0,1,259.08,118.48Z"/><path class="cls-1" d="M280.45,128.78a15.76,15.76,0,0,1,3.39,5.89,20.38,20.38,0,0,1,.13,12.14,15.78,15.78,0,0,1-3.3,5.95,17.43,17.43,0,0,1-3-6,21.27,21.27,0,0,1-.84-5.92,22,22,0,0,1,.74-5.93A17.82,17.82,0,0,1,280.45,128.78Z"/><path class="cls-1" d="M217.57,128.07a8.11,8.11,0,0,0-3.34,2.57,37.52,37.52,0,0,0-2.24,3.18c-1.6,2.37-3.29,4.61-5.05,6.76s-3.61,4.22-5.6,6.28a49.38,49.38,0,0,1-6.92,6,21.32,21.32,0,0,1,1.61-9.4,29.71,29.71,0,0,1,4.72-8,31,31,0,0,1,6.9-6.21,14.11,14.11,0,0,1,4.76-2.12A6.14,6.14,0,0,1,217.57,128.07Z"/><path class="cls-1" d="M158.31,152.85a69.23,69.23,0,0,1-.3-10.46c.11-3.31.28-6.54.55-9.75s.56-6.42,1-9.7c.11-.82.21-1.65.34-2.49s.28-1.55.36-2.29a5.39,5.39,0,0,0-1-4.42,4.11,4.11,0,0,1,2.85,1,7.72,7.72,0,0,1,1.94,2.52,16,16,0,0,1,1.06,2.74,26.44,26.44,0,0,1,.7,2.61,35.77,35.77,0,0,1,.71,10.67,36.37,36.37,0,0,1-2.39,10.42A26.61,26.61,0,0,1,158.31,152.85Z"/><path class="cls-1" d="M186.09,110.56a12.29,12.29,0,0,0-1.5,5.73c-.1,1.92,0,3.91-.2,6.15a20.16,20.16,0,0,1-.59,3.5,24,24,0,0,1-1.14,3.35,49.27,49.27,0,0,1-3,5.81c-1.07,1.78-2.06,3.41-3,5.11s-2,3.4-3,5.14c-2,3.48-3.83,7.08-6.16,10.91a29.72,29.72,0,0,1,.28-13.14,38.65,38.65,0,0,1,2-6.28c.42-1,.91-2,1.39-3s1-1.9,1.57-2.81c1.08-1.79,2.14-3.46,3.08-5.07.48-.8.9-1.6,1.32-2.39a26.53,26.53,0,0,0,1.09-2.49,43.51,43.51,0,0,1,2.6-6A9.19,9.19,0,0,1,186.09,110.56Z"/><path class="cls-1" d="M191.79,122.45a14.45,14.45,0,0,1,1.62,10.69,38.6,38.6,0,0,1-3.81,9.38c-1.38,2.71-2.81,5.39-4.33,8.14a79.29,79.29,0,0,1-5.3,8.47,23.09,23.09,0,0,1-.68-10.45,32.06,32.06,0,0,1,3.2-9.82,90.65,90.65,0,0,1,5.06-8A47.44,47.44,0,0,0,191.79,122.45Z"/><path class="cls-1" d="M111.88,114.24a22.42,22.42,0,0,1,10.47,5.05,29.25,29.25,0,0,1,7.31,9.23,27.87,27.87,0,0,1,3,11.44,20.27,20.27,0,0,1-2.73,11.38c-1.23-3.78-2.24-7.07-3.46-10.22a97.46,97.46,0,0,0-4-9c-1.46-2.91-3.06-5.76-4.85-8.66S113.92,117.65,111.88,114.24Z"/><path class="cls-1" d="M141.86,104.16c1.53,1.92,3.21,3.37,4.77,5.37a21.81,21.81,0,0,1,3.43,6.89,37.58,37.58,0,0,1,1.38,7.28c.24,2.38.36,4.65.44,7a65,65,0,0,1-1,14.19,34,34,0,0,1-5.47,13.42l-.8-13.87c-.28-4.49-.57-9-.68-13.54l0-3.44c0-1.16,0-2.31,0-3.42,0-2.24.09-4.4,0-6.51a32.76,32.76,0,0,0-.77-6.27C142.64,109.12,141.74,106.66,141.86,104.16Z"/><path class="cls-1" d="M82.3,116.11a26.13,26.13,0,0,1,3.09,9.79,36.16,36.16,0,0,1-.17,10,34.68,34.68,0,0,1-1.11,4.9,44.21,44.21,0,0,1-1.66,4.53c-.59,1.41-1.17,2.75-1.68,4.15a19.12,19.12,0,0,0-1.08,4.7,9,9,0,0,1-2.85-4.7,18.94,18.94,0,0,1-.55-5.39c0-1.74.24-3.35.4-4.86s.4-3.05.63-4.57c.48-3,1.06-6,1.81-9.11A52.32,52.32,0,0,1,82.3,116.11Z"/><path class="cls-1" d="M102.55,131.62a14.78,14.78,0,0,1,3.14,5.46,17.58,17.58,0,0,1,.86,5.46,17.38,17.38,0,0,1-.85,5.47,14.68,14.68,0,0,1-3.15,5.46A14.51,14.51,0,0,1,99.41,148a17.11,17.11,0,0,1-.86-5.47,17.31,17.31,0,0,1,.87-5.46A14.75,14.75,0,0,1,102.55,131.62Z"/><path class="cls-1" d="M69,101.7a20.7,20.7,0,0,1-.7,7.79,59.19,59.19,0,0,1-2.52,7.2c-.94,2.29-1.85,4.43-2.68,6.62s-1.68,4.37-2.4,6.58c-1.51,4.41-2.82,8.88-4,13.48-.58,2.3-1.13,4.63-1.69,7L54.21,154l-.22.92a1.24,1.24,0,0,0-.09.65c.05.47.2,1.14.89,1a.85.85,0,0,1-.43.31,1.12,1.12,0,0,1-.6-.06,2.45,2.45,0,0,1-.95-.7,2.84,2.84,0,0,1-.56-1.11l-.27-.93a37.51,37.51,0,0,1-.89-3.77,44.27,44.27,0,0,1-.62-7.72,49,49,0,0,1,2.67-15.29,51,51,0,0,1,7.17-13.67C63.28,109.57,66.35,106.14,69,101.7Z"/><path class="cls-1" d="M110.65,132.32a12.66,12.66,0,0,1,3.14,4.76,13.54,13.54,0,0,1,.86,4.76,13.34,13.34,0,0,1-.85,4.76,12.47,12.47,0,0,1-3.15,4.75,12.32,12.32,0,0,1-3.14-4.75,13.14,13.14,0,0,1-.86-4.76,13.33,13.33,0,0,1,.87-4.76A12.5,12.5,0,0,1,110.65,132.32Z"/><path class="cls-1" d="M37.48,128.1a26.88,26.88,0,0,1,2.31,7.25c.43,2.26.71,4.33,1,6.29s.56,3.84.9,5.86.83,4.13,1.57,6.92a10.42,10.42,0,0,1-7.18-4.07,15.4,15.4,0,0,1-3.22-7.61,18.14,18.14,0,0,1,.68-7.83A17.53,17.53,0,0,1,37.48,128.1Z"/><path class="cls-1" d="M20.56,107.06a60.93,60.93,0,0,1,1,11.43c0,3.7-.15,7.32-.46,10.94s-.79,7.21-1.45,10.84a59,59,0,0,1-3,11.08,35.36,35.36,0,0,1-3.29-11.21,52.58,52.58,0,0,1,2-22.61A35.52,35.52,0,0,1,20.56,107.06Z"/><path class="cls-1" d="M-.27,131.62a15.45,15.45,0,0,1,1.67,2.77,20,20,0,0,1,1.09,2.74,25.11,25.11,0,0,1,1.09,5.44A26.75,26.75,0,0,1,3.51,148a23.82,23.82,0,0,1-1.32,5.49l-2.66-2.12c.68.15,1.38.34,2.08.57a14.56,14.56,0,0,1,2.15.93,14.28,14.28,0,0,1-1.67,1.64,20.54,20.54,0,0,1-1.74,1.29l-1.28.83-1.38-2.95A21.43,21.43,0,0,1-4,148.2a23.49,23.49,0,0,1-.26-5.55,22.5,22.5,0,0,1,1.07-5.55A19,19,0,0,1-2,134.34,14.65,14.65,0,0,1-.27,131.62Z"/></g><g id="圖層_2" data-name="圖層 2"><path class="cls-1" d="M514.79,68.82s6.07-.53,6.34-2.11,0-5.55,2.11-10S528,64.59,528,64.59l6.61-1.05L537,57.19s1.93-1,3.17,2.21,0,8.63,0,8.63l6.16,6v7.4a56.86,56.86,0,0,1,1.77,7,2,2,0,0,1-1.41,2.29L538.4,94.1s2.29.18,3,1.94A2.42,2.42,0,0,0,544,97.45s2.56,3.17,2.21,5.38,0,4.14-2.47,4.58-2,3.52-2,3.52l-2.46-.7s-5.73-1.59-6.35-3.53-1.93,1.5-1.93,1.5l-2.21.44s-5.37,13.48-7.84,16.21,1.41,1.32,1.41,1.32,4,1.15,4,2.82a2.78,2.78,0,0,1-1.23,2.38L521.92,133s-.79,1.68-1.76,1.59-.18,2.11-.18,2.11l-1.14,1.32-1.94-.79-2.11-2.38s3.26,7.49,3.34,7.75-1.32,0-1.32,0l-.35,1.06-2.91-2.64-1.49-3.35.44,2.82v4.41l-2.38-2.56-1.32-3.79-.44-3s-5,1.32-8.29-.62-2.9-2.73-4.93-2.91-9.25,1.15-9.25,1.15,1.06.79-4.76-2.29l-5.28-1.24-11-6.69s-5.91-12.51-8.46-18.76-4.49-12.69-2.82-21.15,15.77-17.62,16.21-24.49,4.49-14.36,6.7-18.94,5.81-5,8.1-5.81,17.88-4.14,24.31,2.47,8.64,11.89,9.52,19.29A19.83,19.83,0,0,1,514.79,68.82Z"/><path class="cls-1" d="M514.79,69.45a19.35,19.35,0,0,0,5-1,3.06,3.06,0,0,0,1.85-1.32,9.4,9.4,0,0,0,.32-2.9A23.26,23.26,0,0,1,523,59c.11-.32.72-2.71,1.32-2.69.42,0,.92,1.33,1.06,1.62a23.85,23.85,0,0,1,1,2.68c.42,1.36.78,2.74,1.08,4.13a.64.64,0,0,0,.77.44l6.6-1.06a.63.63,0,0,0,.44-.44L537,58.87c.14-.36.29-.72.41-1.08.26-.85-.1.15-.18,0s.65-.06.69,0c.83.18,1.34,1.15,1.61,1.85,1,2.54.44,5.43.06,8-.17,1.17,1.28,2,2.06,2.78l2.43,2.36c.43.42,1.09,1.37,1.65,1.6.32.14,0-.23,0-.22a3.22,3.22,0,0,0,0,.93v3.17a14,14,0,0,0,.16,3.83c.32,1.11.65,2.22.94,3.33s.94,2.74.62,3.86c-.19.66-.69.84-1.24,1.06-.93.36-1.86.75-2.79,1.12l-5.16,2.09a.63.63,0,0,0,.17,1.23,3.74,3.74,0,0,1,1.25.38c.94.48,1.05,1.33,1.71,2a3.14,3.14,0,0,0,2.84.9l-.61-.17a10.85,10.85,0,0,1,1.82,3.26,5.51,5.51,0,0,1,.1,2.49,4.89,4.89,0,0,1-.63,2.56c-.56.64-1.52.54-2.22,1a2.86,2.86,0,0,0-1.16,1.25,4.58,4.58,0,0,0-.38,2.53l.79-.6a28.67,28.67,0,0,1-7-2.56,3.88,3.88,0,0,1-1.48-1.61,1.07,1.07,0,0,0-1.21-.64c-1,.26-1.47,1.69-1.79,2.51l.44-.43c-.89.17-2.23.11-2.68,1s-.8,2-1.2,2.9a105.91,105.91,0,0,1-5,10.64,19.45,19.45,0,0,1-1,1.71,7.38,7.38,0,0,0-1.37,1.93c-.41,1.35,1,1.49,2,1.29a4,4,0,0,0,.68-.18c.31-.14.32,0,0-.08a8.76,8.76,0,0,1,2,.76c.89.45,1.85,1,1.5,2.13a2,2,0,0,1-1.11,1.29c-.78.44-1.59.82-2.38,1.23a2.81,2.81,0,0,0-1.19,1.15c-.54.74-1.61.51-1.9,1.44a3.77,3.77,0,0,0,.27,2.12l.16-.61-1.14,1.32.6-.16-1.29-.53a4.11,4.11,0,0,1-.61-.25c.47.31.1,0,0-.1a23.78,23.78,0,0,0-1.89-2.13c-.51-.57-1.24.16-1,.76l1.59,3.66c.38.87.76,1.75,1.13,2.63.13.29.24.6.38.88s.06.48.16.17l.44-.44a2.14,2.14,0,0,1-1-.07.64.64,0,0,0-.77.44l-.35,1.06,1-.28a24.13,24.13,0,0,1-2.89-2.63c.18.23-.1-.3-.13-.37l-.49-1.08-.8-1.78c-.31-.7-1.24-.16-1.14.48a24.27,24.27,0,0,1,.42,3.05c0,1.33,0,2.67,0,4l1.07-.45c-.68-.72-1.33-1.49-2-2.19a3.55,3.55,0,0,1-.33-.34c.3.39.1.19.06,0a11.9,11.9,0,0,0-.53-1.52,25.55,25.55,0,0,1-1.14-5,.64.64,0,0,0-.77-.44,12.6,12.6,0,0,1-6,.15,11,11,0,0,1-4.16-2.38,5.18,5.18,0,0,0-1.9-1.16c-1.79-.48-3.88,0-5.67.26-1.57.22-3.13.47-4.69.76-.6.1-.53.85-.15,1.14-.45-.34-.1-.07-.1-.07l0,0,0-.06c-.26-.31-.06-.62.63-1a2.54,2.54,0,0,0-.52-.2c-1.42-.63-2.74-1.59-4.19-2.14-1.7-.65-3.66-.61-5.35-1.26.31.12-.11-.09-.19-.14-.29-.19-.58-.36-.88-.53L472,126.64,466,123c-.23-.14-.45-.3-.69-.42s.14.29.06.06c-.24-.66-.61-1.29-.9-1.92q-2-4.2-3.88-8.41c-3.09-6.84-6.6-13.91-7-21.53-.2-4,.2-8.15,2.28-11.65a54.5,54.5,0,0,1,6.69-8.39A54.55,54.55,0,0,0,468.79,63a11.28,11.28,0,0,0,1.47-3.42c.4-1.94.46-3.91,1-5.84a67.16,67.16,0,0,1,4.94-12.09,14.11,14.11,0,0,1,3.06-4.73,10.73,10.73,0,0,1,4-2,42.38,42.38,0,0,1,14.28-2,18.47,18.47,0,0,1,9.23,2.45,20.48,20.48,0,0,1,4.32,4.3,31,31,0,0,1,3.53,5.19,29.07,29.07,0,0,1,3.2,11.35A18.75,18.75,0,0,1,515.24,67a17.39,17.39,0,0,1-1,1.53c-.49.64.59,1.26,1.08.63a19.64,19.64,0,0,0,3.06-6.43c1.2-4.19.72-8.56-.41-12.72a29.48,29.48,0,0,0-5.61-10.7c-2.46-3.06-5-5.55-8.81-6.67-5.7-1.67-12.27-1.11-18,.3A18.21,18.21,0,0,0,479,35.57,11.57,11.57,0,0,0,475.6,40c-.93,1.89-1.87,3.77-2.73,5.69a55.29,55.29,0,0,0-2.55,6.7,39.73,39.73,0,0,0-1.19,6.39c-.41,3.18-3,6-5,8.28-2.51,2.89-5.18,5.63-7.48,8.68a23.52,23.52,0,0,0-2.77,4.48,18.22,18.22,0,0,0-1.35,5.59c-1,8.58,2.22,16.38,5.63,24.06q2.21,4.95,4.5,9.86c.46,1,.92,2,1.39,3a1.89,1.89,0,0,0,.62.87c1.71,1.29,3.76,2.28,5.59,3.4a52.22,52.22,0,0,0,5.26,3.19c1.67.76,3.71.67,5.43,1.31,1.44.54,2.77,1.51,4.19,2.14.42.19,1.06.52,1.38,0a.7.7,0,0,0-.29-.94l-.15,1.14c1.51-.27,3-.52,4.56-.74s4.24-.94,5.78,0c.91.56,1.68,1.36,2.59,1.95a9.27,9.27,0,0,0,3.92,1.51,14.94,14.94,0,0,0,5.61-.35l-.77-.44c.14,1,.22,1.92.42,2.85a23.49,23.49,0,0,0,.84,2.49,5.69,5.69,0,0,0,.89,2c.69.79,1.44,1.54,2.15,2.31a.63.63,0,0,0,1.07-.44c0-1.38.06-2.77,0-4.15a27.46,27.46,0,0,0-.46-3.24l-1.14.48a17.61,17.61,0,0,0,1.59,3.47,22.88,22.88,0,0,0,2.91,2.64.63.63,0,0,0,1-.27l.36-1.06-.77.44c.68.12,2.15.43,2.1-.69a8.33,8.33,0,0,0-.91-2.19q-1.25-2.9-2.51-5.79l-1,.75a24.53,24.53,0,0,0,2,2.28,8.52,8.52,0,0,0,2.31,1.06.62.62,0,0,0,.61-.16l1.15-1.33a.64.64,0,0,0,.16-.6,4.11,4.11,0,0,1-.17-.57c-.07-.28,0-1-.26-.76.14-.13.78-.15,1-.29a3.27,3.27,0,0,0,.86-.88,8,8,0,0,1,.43-.69c-.35.39,0,.06.22,0,.72-.33,1.43-.73,2.14-1.1a3.6,3.6,0,0,0,2.13-2.4c.41-1.68-.74-2.69-2.12-3.39a5.2,5.2,0,0,0-2.74-.86c-.42.07-.85.23-1.28.3a.5.5,0,0,1-.21,0c.45.17.12.12.45-.18a5.5,5.5,0,0,0,.71-.87c1.94-2.52,3.19-5.68,4.47-8.56,1.11-2.47,2.17-5,3.18-7.48l-.44.43c1-.2,2.25-.12,2.74-1.12a8.59,8.59,0,0,1,.52-1c.07-.1.16-.31.28-.36a.21.21,0,0,0-.11.26,3.58,3.58,0,0,0,1.53,1.62c2.27,1.52,5.07,2.15,7.66,2.89a.63.63,0,0,0,.79-.6,2.46,2.46,0,0,1,1.27-2.85,4.56,4.56,0,0,0,2.13-1,3.75,3.75,0,0,0,.81-1.93,8.72,8.72,0,0,0-.18-4.91A13.2,13.2,0,0,0,544.48,97a.65.65,0,0,0-.61-.16c.18,0-.23,0-.31,0a2.15,2.15,0,0,1-.93-.25c-.73-.45-.91-1.48-1.56-2a4.78,4.78,0,0,0-2.67-1.08l.16,1.23,7.07-2.86a13.1,13.1,0,0,0,1.85-.77c1.4-.84,1.32-2.44,1-3.85-.35-1.78-.86-3.54-1.38-5.28-.06-.19-.13-.38-.18-.58s0,.19,0,0c-.05-.53,0-1.09,0-1.61V75.13c0-.73.09-1.23-.41-1.77-1.86-2-4-3.86-5.94-5.77l.16.61a21.39,21.39,0,0,0,.5-6.62c-.19-2-1.08-5.11-3.54-5.15-1.37,0-1.49,1-1.9,2.11L534,63.37l.44-.44L527.83,64l.77.44c-.26-1.25-.59-2.5-1-3.72-.49-1.64-1-3.75-2.22-5-1.36-1.44-2.46,0-3,1.34a21.25,21.25,0,0,0-1.52,5.59c-.09.69-.16,1.38-.21,2.08a6.32,6.32,0,0,1-.15,1.85c-.41.88-2.24,1.1-3.08,1.27a26.64,26.64,0,0,1-2.66.39C514,68.27,514,69.52,514.79,69.45Z"/><ellipse class="cls-2" cx="528.31" cy="77.92" rx="1.6" ry="2.89" transform="translate(-4.58 112.71) rotate(-12.13)"/></g></svg>