<svg xmlns="http://www.w3.org/2000/svg" viewBox="0 0 481.53 112.82"><defs><style>.cls-1{fill:#917b53;}</style></defs><g id="圖層_2" data-name="圖層 2"><path class="cls-1" d="M4.59,5.25,70,10.33H145.5s33-.63,47.6,3.81,59.67,49.51,59.67,49.51,12.06-8.25,20.31-4.44,11.42,4.44,11.42,4.44S320.68,42.7,367.65,40.8,436.84,63,452.07,63.65a67.63,67.63,0,0,0,26.06-3.81l-7.65,7.38L424.78,63l-52-11.9s-22.22-2.39-34.28,0-40.62,16.11-40.62,16.11a18,18,0,0,1,10.16,11l2.54,8.25,7.83,7.83.84,8-13.12-7.62-7.61-1.27s-16.29,10.79-23.91,13.12-29.62,4.86-43.16,1.27-14.39-1.69-22-4.87-12.9-2.11-20.52-4.65a22.65,22.65,0,0,0-14.39.21l-12.9-7.83,37-1.27,17.14-11L195.22,67.22,146.13,20.7,41.4,12.24Z"/></g></svg>