<svg id="圖層_1" data-name="圖層 1" xmlns="http://www.w3.org/2000/svg" viewBox="0 0 580.08 507.57"><defs><style>.cls-1{font-size:142.71px;fill:#bdbec4;}.cls-1,.cls-5{font-family:DFLiKingHei-W8-WINP-BF, DFPLiKingHei-XB;}.cls-2,.cls-4{fill:#231815;}.cls-2{stroke:#231815;stroke-miterlimit:10;stroke-width:0.5px;}.cls-3{fill:#917b53;}.cls-5{font-size:157.27px;fill:#3b3c36;}</style></defs><text class="cls-1" transform="translate(16.11 396.35)">SAFARI</text><path class="cls-2" d="M132.71,262.08H115.14L102,260.38l-17.87-1.84s-8.18.5-8.51-2.67-4.34-2.17,0-9.68,3.67-24.82,25.54-38.54,17.53-8.54,24.55-10.05,5.84-5.84,13.52-4,4.67-6.35,10.52-8.52,19.36-8.68,28.21-1.84,15-11,31.89-7,18.7-39.56,77.63-2.33,66.45,8.51,71.45,3.67,31.06-2.84,30.56-3,15,1.34,15,1.34,4.68-6.85,18.7-3.17,22.71,7.84,28.72,11.35,4.34,10.18,10.85,10.18,13.85,1.17,8.85,3.34-2.51,5.34-6.51,7.68-14.2,6.68-16.2,6.68-9.35,18.2-11,19.87S428,246.35,426.5,246.35s-8.48,4.23-8.48,4.23c-3.26-.11-9.11-3.78-12.33,6.68s-12.47,8-12.36,11.24S334.9,305.34,327,304.9s-6.9,4.11-8.13,4-1.33,3.12-1.33,3.12-8.07,19.06-6.9,21.4-10.69,17.11-12.11,23,.09,23.62-1.67,23.7-5.17,26.38-3.92,31.39.42,21.87.42,21.87-5.35,6.09-21.46,0c0,0,6.9-46.05,9.91-53.62S284,346.19,284,346.19l-6.46-15.47L261.89,319l-30.28-22S191,278.63,190.32,278s-19.81-7.57-19.81-7.57l-17.36-1.89-21.26-6.68"/><polygon class="cls-3" points="291.94 233.66 295.28 236.67 309.97 235.17 319.99 245.02 316.31 248.69 315.98 261.04 324.99 270.06 322.66 277.4 324.99 279.74 323.32 289.76 310.97 302.11 301.62 330.16 295.61 336.17 286.26 319.14 275.24 312.8 275.24 271.06 288.26 256.04 285.59 241.34 291.94 233.66"/><polygon class="cls-3" points="252.04 276.4 258.71 283.42 267.06 286.25 267.73 309.13 236.84 288.09 252.04 276.4"/><polyline class="cls-3" points="182.75 259.04 179.91 262.71 186.76 266.22 193.94 271.06 208.8 276.4 214.31 280.91 223.49 280.91 225.66 284.92 231.34 284.25 235.51 276.4 231.17 266.72 231.17 263.05 219.31 260.04 206.79 264.05 199.11 260.04 188.43 260.88 181.75 259.04"/><path class="cls-3" d="M274.41,234.83l.83,6.35,5.85,1.83a36.89,36.89,0,0,1,0,12c-1.17,5.51-9.85,10.19-9.85,10.19v12l-7.74.67L256,273.73l7.46-6.18,1.39-5.84-11-8.35,1.51-9.85,14.19.67,2.67-2.5Z"/><polygon class="cls-3" points="238.35 275.07 256.88 266.39 258.21 264.05 251.2 259.04 243.19 251.53 244.52 243.18 231.67 240.84 230.17 236.34 211.47 228.99 203.79 228.99 198.28 234.83 196.61 243.68 189.76 247.35 189.76 250.19 203.45 248.36 209.8 254.37 213.3 252.03 217.14 255.37 225.49 250.53 235.51 249.36 236.84 252.03 233.34 259.04 235.51 268.39 238.18 271.98 238.35 275.07"/><polygon class="cls-3" points="312.31 234.83 320.49 241.51 326.66 249.86 320.65 249.86 319.49 260.21 327.67 266.55 333.01 263.55 354.38 261.55 364.23 257.87 364.23 254.87 367.57 252.03 363.89 247.85 338.35 245.85 338.85 240.18 341.36 235.5 334.68 228.99 322.49 228.16 312.31 231.49 312.31 234.83"/><path class="cls-3" d="M328.17,284.92l6.84-7,3.51,1.67-12.19,14.69s54.43-20.2,59.6-26.88,4.68-6,4.68-6l1.16-19-5.84-1-3-6.51,3.17-5-3.68-.83s-2.83-1.17-.5-5.18-8.18-2.5-8.18-2.5l-2.67-4.17-25.88,11h-8l7.68,5.51-3.34,10,24,1,4.18,7.35-2.17,5.67v2.18l-11.52,4.5-23.54,2.17-3.84,4.51Z"/><path class="cls-3" d="M393.61,225.32l-5,6,1.34,5.17,7.51,1.84-1.67,21,18.7-15.52,7.68-2.34s12.19-11,12.35-10.68l-2.83-5.51-19.2-1.51Z"/><polygon class="cls-3" points="153.37 256.48 159.71 249.58 174.41 259.04 175.96 266.94 153.37 256.48"/><path class="cls-4" d="M266.74,422.77a4.46,4.46,0,0,1,2.68,1.65,7.75,7.75,0,0,1,1.41,2.88c.27,1,.42,2.09.61,3.12s.47,2.05.68,3.07l.07.34-.33,0a6,6,0,0,1-2.29-.9c-.69-.41-1.32-.91-2-1.37a7.16,7.16,0,0,0-2.06-1.09,6.28,6.28,0,0,0-2.33-.29,6,6,0,0,1,2.39.08,6.75,6.75,0,0,1,2.19,1c.67.43,1.32.88,2,1.28a5.56,5.56,0,0,0,2.12.8l-.25.3c-.24-1-.48-2.07-.69-3.11s-.3-2.09-.55-3.1a7.59,7.59,0,0,0-1.21-2.83A4.6,4.6,0,0,0,266.74,422.77Z"/><path class="cls-4" d="M293.6,430.5c0-1-.26-1.94-.21-3a3.06,3.06,0,0,1,.45-1.5,8.69,8.69,0,0,1,.93-1.2,16.58,16.58,0,0,1,4.69-3.65,35.51,35.51,0,0,0-4.32,4,4.29,4.29,0,0,0-1.37,2.4A24.74,24.74,0,0,1,293.6,430.5Z"/><path class="cls-4" d="M292.54,433.82a5.84,5.84,0,0,1,2.12-3,21.45,21.45,0,0,1,3-2.17,21.76,21.76,0,0,1,6.92-2.69c-1.16.43-2.31.88-3.42,1.4a35.82,35.82,0,0,0-3.24,1.72,34.46,34.46,0,0,0-3.05,2A6.64,6.64,0,0,0,292.54,433.82Z"/><path class="cls-4" d="M291.43,434.16c.93-.32,1.88-.6,2.83-.86s1.9-.48,2.86-.7a31,31,0,0,1,5.84-.85l-5.73,1.34C295.3,433.48,293.39,433.89,291.43,434.16Z"/><text class="cls-5" transform="translate(50.09 196.49)">NEWS</text></svg>