<svg id="圖層_1" data-name="圖層 1" xmlns="http://www.w3.org/2000/svg" viewBox="0 0 619.6 144.57"><defs><style>.cls-1{fill:#231815;}</style></defs><path class="cls-1" d="M375.42,148.91c-.35-2-.58-4.07-.87-6.08l-.82-6c-.57-4-1.22-7.87-2-11.71a78.16,78.16,0,0,0-7.42-21.55,49.69,49.69,0,0,0-6.25-9.22A103.22,103.22,0,0,0,350,86a54.85,54.85,0,0,1-8.21-9.55,30.14,30.14,0,0,1-1.57-2.84c-.42-.94-.81-1.77-1.28-2.6a7.74,7.74,0,0,0-1.71-2.16,3.4,3.4,0,0,0-2.63-.84,3.78,3.78,0,0,1,3.2-.22,9.07,9.07,0,0,1,2.84,1.79,24.17,24.17,0,0,1,2.22,2.34c.63.71,1.29,1.4,2,2.06A88.76,88.76,0,0,0,354,81.19c1.63,1.18,3.29,2.39,4.92,3.72a45,45,0,0,1,4.75,4.35,51.62,51.62,0,0,1,4.22,5,56.7,56.7,0,0,1,3.44,5.54,58.59,58.59,0,0,1,6.6,24.54A79.81,79.81,0,0,1,375.42,148.91Z"/><path class="cls-1" d="M587.15,145.69a11.31,11.31,0,0,1-2.77-4,31.92,31.92,0,0,1-1.54-4.57c-.84-3-1.55-6-2.19-9-.31-1.51-.62-3-.89-4.53a34.44,34.44,0,0,1-.63-5,15.11,15.11,0,0,1,.92-5.93,22.19,22.19,0,0,1,2.7-4.85c1-1.36,1.93-2.53,2.92-3.77s2-2.4,3.06-3.56c2.1-2.32,4.3-4.55,6.62-6.65A71.18,71.18,0,0,1,610.7,83c-3.41,5.35-7.1,10.2-10.7,15.08l-10.75,14.39a16,16,0,0,0-1.87,3.1,8.32,8.32,0,0,0-.68,3.06c-.09,1.22,0,2.63,0,4.18s.11,3.07.13,4.61c0,3.07,0,6.16-.15,9.26S586.24,142.62,587.15,145.69Z"/><path class="cls-1" d="M595.83,150.35a.77.77,0,0,0,.84-.55.43.43,0,0,0,0-.37c-.08,0-.11-.18-.18-.28A3.83,3.83,0,0,1,596,148a4.62,4.62,0,0,1,0-2,10.27,10.27,0,0,1,1.29-3c.46-.79.9-1.49,1.37-2.22a47.62,47.62,0,0,1,6.53-7.82,46.65,46.65,0,0,1,8-6.26,31.84,31.84,0,0,1,9.7-4.12,42.23,42.23,0,0,1-5.53,8.82,72.33,72.33,0,0,1-6.64,7.31,73.62,73.62,0,0,1-7.54,6.38c-.66.49-1.38,1-2,1.43s-1.19.75-1.57,1a2,2,0,0,0-.51.46,12,12,0,0,0-.43,1.34,2.81,2.81,0,0,1-.51.91,1.75,1.75,0,0,1-.85.53C596.76,151,596,150.84,595.83,150.35Z"/><path class="cls-1" d="M374.55,58.58a76.3,76.3,0,0,1,10.33,20.31,95,95,0,0,1,4.66,22.42,136.08,136.08,0,0,1,0,22.66,172.49,172.49,0,0,1-3.14,22.34A153.69,153.69,0,0,1,383.26,124c-.61-7.41-1-14.73-1.68-22s-1.53-14.38-2.77-21.58S376,66.06,374.55,58.58Z"/><path class="cls-1" d="M331.88,90.13c2,2.42,4,4.71,6,7s4.08,4.47,6.09,6.77,4,4.68,5.87,7.23l1.38,1.93c.45.66.87,1.34,1.3,2,.85,1.34,1.68,2.7,2.41,4.11a85.57,85.57,0,0,1,7,17.47,111.47,111.47,0,0,1,3.47,18.25l-.93-.77a1.33,1.33,0,0,0,1.46-.23,1.63,1.63,0,0,0,.59-.79,1.41,1.41,0,0,0-.1-1.09,1.57,1.57,0,0,1,.72,1.12,2.62,2.62,0,0,1-.23,1.45,3,3,0,0,1-1,1.21,3,3,0,0,1-1.69.52h-.51l-.41-.78c-2.92-5.49-5.38-11.08-7.83-16.56s-4.85-10.89-7.54-16.09c-1.36-2.6-2.73-5.16-4.23-7.7l-4.61-7.78C336.06,102.09,333,96.36,331.88,90.13Z"/><path class="cls-1" d="M274.58,110.9c1.69,1.15,3.21,2.21,4.75,3.33a40.79,40.79,0,0,1,4.39,3.76,43.4,43.4,0,0,1,7,9.25,42.6,42.6,0,0,1,4.24,10.8,30,30,0,0,1,.58,11.74,86.11,86.11,0,0,1-6.41-9.38c-1.89-3.09-3.67-6.15-5.39-9.25s-3.42-6.21-5.06-9.45c-.81-1.63-1.62-3.26-2.41-5A20,20,0,0,1,274.58,110.9Z"/><path class="cls-1" d="M306,113a54.67,54.67,0,0,1-4,11,95.28,95.28,0,0,1-5.46,9.86,98.27,98.27,0,0,1-6.53,9.15,64,64,0,0,1-8,8.33l-.56-1.14c.6.31,1.2.64,1.79,1-.67.2-1.33.36-2,.5l-.81.18.25-1.32a50.21,50.21,0,0,1,3.62-11.07,69.82,69.82,0,0,1,5.55-10,68.58,68.58,0,0,1,7.09-9A44.92,44.92,0,0,1,306,113Z"/><path class="cls-1" d="M231,102.62a38.55,38.55,0,0,1,5,3.72,57.88,57.88,0,0,1,4.35,4.22,71.56,71.56,0,0,1,7.43,9.44l1.62,2.52,1.53,2.62a19.69,19.69,0,0,1,1.5,3.36,14.35,14.35,0,0,1,.57,3.92,37.84,37.84,0,0,1-.75,6.12,9.66,9.66,0,0,0,.06,4.61l-2.4-.42a15.77,15.77,0,0,0,4.87-2.69,10.44,10.44,0,0,1-2.9,5.6l-.93,1-1.47-1.37a9.12,9.12,0,0,1-2.13-3.13,14.24,14.24,0,0,1-.92-3.46c-.34-2.23-.36-4.18-.66-5.69a7.14,7.14,0,0,0-.57-1.87,14.42,14.42,0,0,0-1.1-1.94l-1.52-2.44-1.5-2.5c-2-3.34-3.84-6.76-5.55-10.32A72.19,72.19,0,0,1,231,102.62Z"/><path class="cls-1" d="M252.7,113a19.15,19.15,0,0,1,6.41,6.2,25.65,25.65,0,0,1,3.48,8,25.17,25.17,0,0,1,.69,8.65,18.51,18.51,0,0,1-2.81,8.49,46.37,46.37,0,0,1-3.44-7.8c-.88-2.5-1.58-4.93-2.2-7.4s-1.13-5-1.54-7.57A44.42,44.42,0,0,1,252.7,113Z"/><path class="cls-1" d="M273.48,123a15.12,15.12,0,0,1,3.39,5.72,18.92,18.92,0,0,1,1,5.9,18.53,18.53,0,0,1-.87,5.91,15.12,15.12,0,0,1-3.29,5.79,16.8,16.8,0,0,1-3-5.87,21.27,21.27,0,0,1-.09-11.52A17,17,0,0,1,273.48,123Z"/><path class="cls-1" d="M212.33,122.3a7.77,7.77,0,0,0-3.23,2.55A36.18,36.18,0,0,0,207,128c-1.54,2.3-3.18,4.49-4.89,6.57a81.29,81.29,0,0,1-5.46,6.09,46.55,46.55,0,0,1-6.79,5.81,20.47,20.47,0,0,1,1.48-9.18,28.26,28.26,0,0,1,4.59-7.79,29.15,29.15,0,0,1,6.73-6,14,14,0,0,1,4.66-2.05A6,6,0,0,1,212.33,122.3Z"/><path class="cls-1" d="M154.69,146.4a65,65,0,0,1-.38-10.19c.1-3.23.25-6.35.51-9.47s.56-6.24,1-9.43c.11-.8.22-1.6.35-2.41s.28-1.51.36-2.23a5.22,5.22,0,0,0-.89-4.31,4,4,0,0,1,2.8,1,7.54,7.54,0,0,1,1.92,2.45,16.52,16.52,0,0,1,1,2.67c.26.84.51,1.68.69,2.54a33.94,33.94,0,0,1,.71,10.39,34.74,34.74,0,0,1-2.35,10.14A25.46,25.46,0,0,1,154.69,146.4Z"/><path class="cls-1" d="M181.71,105.27a12,12,0,0,0-1.41,5.59c-.08,1.86,0,3.8-.16,6a18.36,18.36,0,0,1-.57,3.42,24.14,24.14,0,0,1-1.1,3.27,47.51,47.51,0,0,1-2.91,5.66c-1,1.73-2,3.31-3,5s-1.91,3.3-2.88,5c-1.94,3.38-3.76,6.87-6.07,10.58a28.51,28.51,0,0,1,.19-12.8,36.75,36.75,0,0,1,2-6.13c.41-1,.89-2,1.36-2.92s1-1.86,1.52-2.74c1.05-1.74,2.08-3.36,3-4.92.47-.77.88-1.55,1.28-2.31a24.82,24.82,0,0,0,1.07-2.41,42.79,42.79,0,0,1,2.56-5.83A8.92,8.92,0,0,1,181.71,105.27Z"/><path class="cls-1" d="M187.25,116.83a14,14,0,0,1,1.66,10.42,37.35,37.35,0,0,1-3.69,9.15c-1.34,2.63-2.73,5.23-4.23,7.89a73.63,73.63,0,0,1-5.23,8.22,22,22,0,0,1-.74-10.19,30.47,30.47,0,0,1,3.09-9.58,82.93,82.93,0,0,1,4.94-7.72A47.47,47.47,0,0,0,187.25,116.83Z"/><path class="cls-1" d="M109.53,108.84a21.74,21.74,0,0,1,10.25,4.86,28,28,0,0,1,7.14,9,26.89,26.89,0,0,1,2.91,11.17,19.47,19.47,0,0,1-2.73,11.08c-1.24-3.69-2.25-6.87-3.45-9.92s-2.46-5.91-3.87-8.73-3-5.59-4.69-8.41S111.49,112.2,109.53,108.84Z"/><path class="cls-1" d="M138.69,99c1.51,1.86,3.15,3.25,4.68,5.2a21,21,0,0,1,3.38,6.71,36.43,36.43,0,0,1,1.36,7.09c.24,2.32.36,4.53.44,6.81a62.75,62.75,0,0,1-1,13.81,32.64,32.64,0,0,1-5.41,13.05c-.36-4.79-.56-9.12-.86-13.5s-.58-8.71-.69-13.16l0-3.34c0-1.13,0-2.24,0-3.33,0-2.18.1-4.27,0-6.32a30.86,30.86,0,0,0-.72-6.09C139.41,103.89,138.55,101.48,138.69,99Z"/><path class="cls-1" d="M80.76,110.67a25,25,0,0,1,3.1,9.52,34.69,34.69,0,0,1-.15,9.76,34.24,34.24,0,0,1-1.08,4.77,43.12,43.12,0,0,1-1.63,4.4c-.59,1.37-1.16,2.67-1.67,4a18.45,18.45,0,0,0-1.1,4.57,8.78,8.78,0,0,1-2.83-4.57,18.44,18.44,0,0,1-.57-5.26c0-1.69.22-3.26.37-4.73s.38-3,.61-4.44c.46-2.94,1-5.87,1.79-8.85A48.93,48.93,0,0,1,80.76,110.67Z"/><path class="cls-1" d="M100.46,125.75a14.25,14.25,0,0,1,3.13,5.31,16.41,16.41,0,0,1,.87,5.31,16.14,16.14,0,0,1-.86,5.32,14,14,0,0,1-3.14,5.31,14.18,14.18,0,0,1-3.15-5.31,16.4,16.4,0,0,1-.85-5.32,16.67,16.67,0,0,1,.86-5.31A14.28,14.28,0,0,1,100.46,125.75Z"/><path class="cls-1" d="M67.84,96.65a20.1,20.1,0,0,1-.64,7.6,56.2,56.2,0,0,1-2.42,7c-.91,2.23-1.78,4.31-2.59,6.44s-1.62,4.24-2.32,6.4c-1.47,4.28-2.75,8.61-3.91,13.08-.58,2.23-1.12,4.5-1.68,6.81l-.81,3.52-.22.9a1.25,1.25,0,0,0-.1.63c.05.45.18,1.11.86,1a.76.76,0,0,1-.42.31,1.19,1.19,0,0,1-.59,0,2.34,2.34,0,0,1-.93-.68,2.75,2.75,0,0,1-.56-1.09l-.27-.9c-.38-1.21-.63-2.43-.89-3.67a43,43,0,0,1-.63-7.52,47.22,47.22,0,0,1,2.58-14.89,49.13,49.13,0,0,1,7-13.3C62.21,104.27,65.2,101,67.84,96.65Z"/><path class="cls-1" d="M108.34,126.44a12.26,12.26,0,0,1,3.13,4.62,12.82,12.82,0,0,1,0,9.26,12.07,12.07,0,0,1-3.14,4.62,12.1,12.1,0,0,1-3.15-4.62,12.66,12.66,0,0,1-.85-4.63,12.85,12.85,0,0,1,.86-4.63A12.18,12.18,0,0,1,108.34,126.44Z"/><path class="cls-1" d="M37.17,122.33a25.77,25.77,0,0,1,2.33,7.06c.43,2.18.72,4.19,1,6.09s.54,3.71.85,5.67.76,4,1.45,6.78A10.08,10.08,0,0,1,35.73,144a14.75,14.75,0,0,1-3.17-7.42,17.29,17.29,0,0,1,.69-7.64A16.75,16.75,0,0,1,37.17,122.33Z"/><path class="cls-1" d="M20.71,101.86A56.55,56.55,0,0,1,21.78,113c0,3.59-.12,7.11-.42,10.63s-.77,7-1.43,10.54a56.46,56.46,0,0,1-3,10.77A33.69,33.69,0,0,1,13.64,134a50.22,50.22,0,0,1,1.95-22A33.8,33.8,0,0,1,20.71,101.86Z"/><path class="cls-1" d="M.45,125.75a14.45,14.45,0,0,1,1.67,2.7,20.51,20.51,0,0,1,1.1,2.66,23.83,23.83,0,0,1,1.09,5.29,25.19,25.19,0,0,1-.08,5.28A22.61,22.61,0,0,1,2.91,147L.24,144.91a17.75,17.75,0,0,1,2,.58,12.82,12.82,0,0,1,2.1.94,13.14,13.14,0,0,1-1.62,1.63,17.64,17.64,0,0,1-1.68,1.27l-1.25.84-1.41-3a20.35,20.35,0,0,1-1.69-5.33,23.36,23.36,0,0,1-.26-5.41,21.4,21.4,0,0,1,1.08-5.39,17.66,17.66,0,0,1,1.14-2.68A13.91,13.91,0,0,1,.45,125.75Z"/></svg>